<!-- icon666.com - MILLIONS vector ICONS FREE --><svg id="Layer_1" enable-background="new 0 0 396.997 396.997" viewBox="0 0 396.997 396.997" xmlns="http://www.w3.org/2000/svg" xmlns:xlink="http://www.w3.org/1999/xlink"><linearGradient id="SVGID_1_" gradientUnits="userSpaceOnUse" x1="144.099" x2="249.295" y1="38.596" y2="125.228"><stop offset="0" stop-color="#9c5e56"></stop><stop offset="1" stop-color="#685356"></stop></linearGradient><linearGradient id="lg1"><stop offset=".0027" stop-color="#f9eeda"></stop><stop offset=".3188" stop-color="#faead6"></stop><stop offset=".6448" stop-color="#fcdec9"></stop><stop offset=".9742" stop-color="#ffcab5"></stop><stop offset="1" stop-color="#ffc8b3"></stop></linearGradient><linearGradient id="SVGID_2_" gradientUnits="userSpaceOnUse" x1="195.685" x2="322.747" xlink:href="#lg1" y1="107.673" y2="201.407"></linearGradient><linearGradient id="lg2"><stop offset="0" stop-color="#ffc1a9"></stop><stop offset=".2719" stop-color="#ffb09f"></stop><stop offset=".8055" stop-color="#ff8584"></stop><stop offset="1" stop-color="#ff7479"></stop></linearGradient><linearGradient id="SVGID_3_" gradientUnits="userSpaceOnUse" x1="29.17" x2="231.219" xlink:href="#lg2" y1="91.258" y2="193.324"></linearGradient><linearGradient id="SVGID_4_" gradientUnits="userSpaceOnUse" x1="193.222" x2="320.284" xlink:href="#lg1" y1="111.013" y2="204.747"></linearGradient><linearGradient id="SVGID_5_" gradientUnits="userSpaceOnUse" x1="59.275" x2="337.5" y1="157.608" y2="326.531"><stop offset="0" stop-color="#ffd4aa"></stop><stop offset=".278" stop-color="#ffcb97"></stop><stop offset=".8387" stop-color="#ffb366"></stop><stop offset="1" stop-color="#ffab57"></stop></linearGradient><linearGradient id="SVGID_6_" gradientUnits="userSpaceOnUse" x1="23.391" x2="225.44" xlink:href="#lg2" y1="102.699" y2="204.765"></linearGradient><linearGradient id="SVGID_7_" gradientUnits="userSpaceOnUse" x1="525.227" x2="545.949" xlink:href="#lg2" y1="784.685" y2="835.998"></linearGradient><linearGradient id="SVGID_8_" gradientUnits="userSpaceOnUse" x1="450.289" x2="471.011" xlink:href="#lg2" y1="814.948" y2="866.261"></linearGradient><linearGradient id="SVGID_9_" gradientUnits="userSpaceOnUse" x1="481.607" x2="502.329" xlink:href="#lg2" y1="802.3" y2="853.613"></linearGradient><g><circle cx="196.19" cy="81.494" fill="url(#SVGID_1_)" r="81.494"></circle><circle cx="252.444" cy="149.544" fill="url(#SVGID_2_)" r="81.494"></circle><circle cx="144.553" cy="149.544" fill="url(#SVGID_3_)" r="81.494"></circle><path d="m173.104 169.183h158.681c7.965 0 14.482-6.517 14.482-14.482 0-7.965-6.517-14.482-14.482-14.482h-158.681c-7.965 0-14.482 6.517-14.482 14.482-.001 7.965 6.516 14.482 14.482 14.482z" fill="url(#SVGID_4_)"></path><path d="m334.036 169.38-135.846 227.617-135.847-227.617z" fill="url(#SVGID_5_)"></path><g fill="#f9e9d7"><path d="m84.631 206.724 53.333-37.344h-10.461l-45.955 32.178z"></path><path d="m103.078 237.633 97.475-68.253h-10.461l-90.097 63.087z"></path><path d="m121.525 268.542 141.618-99.162h-10.461l-134.24 93.996z"></path><path d="m136.889 294.284 3.083 5.166 185.759-130.07h-10.46z"></path><path d="m158.419 330.359 136.645-95.68 7.51-12.583-147.238 103.097z"></path><path d="m176.866 361.268 73.265-51.301 7.51-12.583-83.858 58.718z"></path></g><path d="m238.375 154.701c0-7.965-6.517-14.482-14.482-14.482h-158.681c-7.965 0-14.482 6.517-14.482 14.482 0 7.965 6.517 14.482 14.482 14.482h90.743c4.968 0 8.995 4.027 8.995 8.995v49.102c0 7.462 5.735 13.884 13.189 14.235 7.959.375 14.529-5.967 14.529-13.843v-49.493c0-4.968 4.027-8.995 8.995-8.995 4.968 0 8.995 4.027 8.995 8.995v76.088c0 7.654 6.205 13.859 13.859 13.859 7.654 0 13.859-6.205 13.859-13.859v-99.457h-.005c-.001-.037.004-.072.004-.109z" fill="url(#SVGID_6_)"></path><path d="m199.251 24.753h23.099v9h-23.099z" fill="#dd455b" transform="matrix(.713 .702 -.702 .713 81.083 -139.466)"></path><path d="m251.681 106.077-16.462-16.203 6.313-6.414 16.462 16.203z" fill="url(#SVGID_7_)"></path><path d="m167.793 114.179-16.463-16.203 6.314-6.414 16.463 16.202z" fill="url(#SVGID_8_)"></path><path d="m281.285 93.732h9v23.099h-9z" fill="#dd455b" transform="matrix(.713 .702 -.702 .713 155.968 -170.227)"></path><path d="m169.174 52.532-6.313-6.415 16.462-16.203 6.314 6.414z" fill="url(#SVGID_9_)"></path><path d="m118.427 83.09h9v23.099h-9z" fill="#a1cad5" transform="matrix(.702 .713 -.713 .702 104.141 -59.357)"></path></g></svg>