<svg xmlns="http://www.w3.org/2000/svg" viewBox="0 0 500 500"><g id="freepik--background-complete--inject-101"><path d="M377.16,284.79c-.16,1.66-5.1,43.51-5.1,43.51h0l-5.16,75.11a3,3,0,0,0,2,3h0a3,3,0,0,0,3.37-1l74-95.21-69.15-25.46" style="fill:#ebebeb"></path><path d="M397.31,373a3.64,3.64,0,0,1-.82.85,13.44,13.44,0,0,1-2.71,1.74,41.06,41.06,0,0,1-10.17,2.93,73.41,73.41,0,0,1-10.52,1.18c-1.35,0-2.45,0-3.2,0a6.23,6.23,0,0,1-1.18-.09,4.68,4.68,0,0,1,1.17-.12l3.19-.19A94.68,94.68,0,0,0,383.51,378a47.15,47.15,0,0,0,10.11-2.75A20.4,20.4,0,0,0,397.31,373Z" style="fill:#e0e0e0"></path><path d="M413.67,351.53a11.22,11.22,0,0,1-1.61.76c-1.05.46-2.59,1.08-4.51,1.8a135.67,135.67,0,0,1-15.3,4.71,137.49,137.49,0,0,1-15.75,2.9c-2,.24-3.69.41-4.83.48a13.9,13.9,0,0,1-1.78.08,9.91,9.91,0,0,1,1.76-.28c1.13-.14,2.77-.35,4.8-.65,4-.58,9.61-1.55,15.67-3s11.45-3.2,15.3-4.55c1.93-.68,3.49-1.24,4.56-1.65A11.43,11.43,0,0,1,413.67,351.53Z" style="fill:#e0e0e0"></path><path d="M432.83,327.59a3.19,3.19,0,0,1-.55.33c-.37.19-.9.49-1.62.83a63.77,63.77,0,0,1-6.18,2.59,108.74,108.74,0,0,1-21.5,5c-8.56,1.21-16.33,1.88-21.94,2.58-2.8.34-5.07.64-6.63.86l-1.8.25a4.79,4.79,0,0,1-.64.06,2.38,2.38,0,0,1,.62-.16c.41-.08,1-.21,1.79-.35,1.55-.28,3.81-.64,6.62-1,5.59-.8,13.37-1.53,21.9-2.73A117.4,117.4,0,0,0,424.36,331c2.66-.92,4.78-1.78,6.22-2.43.72-.3,1.27-.58,1.66-.74A2.4,2.4,0,0,1,432.83,327.59Z" style="fill:#e0e0e0"></path><path d="M429.25,304.72a3.47,3.47,0,0,1-.52.19l-1.54.47c-1.33.4-3.27.94-5.68,1.54a191.52,191.52,0,0,1-38.41,5.57c-2.49.11-4.5.15-5.89.14l-1.6,0a1.74,1.74,0,0,1-.56,0,2.68,2.68,0,0,1,.55-.06l1.6-.08c1.39-.06,3.4-.16,5.88-.3,4.95-.3,11.79-.88,19.29-2s14.22-2.47,19.05-3.59c2.42-.57,4.38-1,5.72-1.38l1.56-.38A1.89,1.89,0,0,1,429.25,304.72Z" style="fill:#e0e0e0"></path><path d="M432.62,328.36c-.12.06-3.66-6.32-7.89-14.25s-7.57-14.43-7.45-14.5,3.67,6.31,7.9,14.25S432.75,328.29,432.62,328.36Z" style="fill:#e0e0e0"></path><path d="M416.36,348.16a2.39,2.39,0,0,1-.39-.46l-1-1.39c-.45-.61-1-1.36-1.58-2.26s-1.29-1.89-2-3.05c-1.43-2.29-3-5.09-4.6-8.29a109.18,109.18,0,0,1-4.5-10.7,110.61,110.61,0,0,1-3.21-11.15c-.78-3.48-1.33-6.65-1.67-9.33-.21-1.33-.3-2.55-.42-3.61s-.17-2-.22-2.74-.06-1.28-.09-1.73a2.59,2.59,0,0,1,0-.61,2.76,2.76,0,0,1,.1.6c.05.45.11,1,.19,1.72s.16,1.67.3,2.73.26,2.27.49,3.59c.39,2.66,1,5.81,1.78,9.27a112.94,112.94,0,0,0,3.24,11.09,110.65,110.65,0,0,0,4.44,10.66c1.55,3.2,3.09,6,4.47,8.31.66,1.17,1.35,2.18,1.91,3.08s1.07,1.68,1.5,2.3l.95,1.45A2.78,2.78,0,0,1,416.36,348.16Z" style="fill:#e0e0e0"></path><path d="M400.22,368.15a3.24,3.24,0,0,1-.38-.55c-.27-.41-.61-1-1-1.61-.88-1.41-2.11-3.48-3.58-6.06A207.06,207.06,0,0,1,377,317.32c-.85-2.84-1.5-5.16-1.9-6.77-.19-.76-.35-1.38-.47-1.85a2.76,2.76,0,0,1-.12-.66,4.49,4.49,0,0,1,.22.63c.15.47.33,1.07.56,1.83.47,1.59,1.17,3.89,2.07,6.71,1.79,5.66,4.49,13.4,8.05,21.73s7.31,15.61,10.16,20.81c1.43,2.6,2.61,4.7,3.44,6.13.38.69.69,1.24.94,1.67A3.07,3.07,0,0,1,400.22,368.15Z" style="fill:#e0e0e0"></path><path d="M387.33,385.07a7.19,7.19,0,0,1-1-1.05c-.6-.68-1.43-1.71-2.42-3a83,83,0,0,1-12.08-22.35c-.55-1.54-.95-2.8-1.2-3.67a7.74,7.74,0,0,1-.35-1.38,6.65,6.65,0,0,1,.54,1.31c.31.86.77,2.09,1.35,3.61a97.15,97.15,0,0,0,12,22.26c.95,1.32,1.73,2.38,2.27,3.11A6.67,6.67,0,0,1,387.33,385.07Z" style="fill:#e0e0e0"></path><path d="M377.89,398.24a10.22,10.22,0,0,1-1.68-1.78c-1-1.15-2.32-2.76-3.65-4.65a39.34,39.34,0,0,1-3.06-5.08,9.63,9.63,0,0,1-.93-2.27,13.63,13.63,0,0,1,1.26,2.09c.75,1.31,1.83,3.08,3.15,5C375.66,395.23,378,398.14,377.89,398.24Z" style="fill:#e0e0e0"></path><path d="M460.11,289.24c17-22.66-2.52-33.72-2.52-33.72l.23-.75a44.63,44.63,0,0,0,3.37-7.9c6.49-20.92-12.34-41.67-33.73-37-16.09,3.54-20.39,21.31-20.39,21.31s-7.62-1.83-16.55,8.31c-6,6.85-7.57,19.93-7.57,19.93a14.73,14.73,0,0,0-14.36,2.75,12.07,12.07,0,0,0-4.52,7.6c-1.1,6.67,3.17,13.08,9.56,15.28l71.77,24.71c12.17,4.19,22.63-9.83,15-20.19Z" style="fill:#f5f5f5"></path><path d="M408.43,233.86a30,30,0,0,0-5.14.92A21.11,21.11,0,0,0,393,241.67,26.72,26.72,0,0,0,387.75,253c-.65,3.17-.55,5.2-.66,5.19a6,6,0,0,1-.07-1.41,23.13,23.13,0,0,1,.37-3.85,25.88,25.88,0,0,1,5.21-11.57,20.68,20.68,0,0,1,10.59-6.91,17,17,0,0,1,3.82-.61A6,6,0,0,1,408.43,233.86Z" style="fill:#fff"></path><path d="M437.56,214.27a43.22,43.22,0,0,0-4.74-.37,22.54,22.54,0,0,0-19.13,10.57,45.65,45.65,0,0,0-2.21,4.21,5,5,0,0,1,.37-1.24,18.85,18.85,0,0,1,1.53-3.16,21.93,21.93,0,0,1,19.45-10.75,19.84,19.84,0,0,1,3.49.39A4.86,4.86,0,0,1,437.56,214.27Z" style="fill:#fff"></path><path d="M369.74,274.12a9.43,9.43,0,0,1-.36-2.37A13.49,13.49,0,0,1,370,266a7.62,7.62,0,0,1,1.76-2.73,6,6,0,0,1,2.27-1.38,3.4,3.4,0,0,1,2.41-.08,8.25,8.25,0,0,0-2.28.43,6,6,0,0,0-2.06,1.37,7.46,7.46,0,0,0-1.61,2.57,15.07,15.07,0,0,0-.77,5.57A14.27,14.27,0,0,1,369.74,274.12Z" style="fill:#fff"></path><path d="M460.39,289.6c-.08,0,.18-1.24.07-3.49a19.25,19.25,0,0,0-.66-4,19.34,19.34,0,0,0-6.61-9.85,20.92,20.92,0,0,0-6.72-3.51,21.87,21.87,0,0,0-8.35-1.05,23.66,23.66,0,0,0-8.75,2.5l-.59.3.23-.62a33.42,33.42,0,0,0,.15-23.48,20.64,20.64,0,0,0-4.55-7,26.33,26.33,0,0,0-5.79-4.49,29.23,29.23,0,0,0-10-3.53,28.77,28.77,0,0,0-2.89-.27l-.76,0-.26,0,.26,0h.76a24.59,24.59,0,0,1,2.92.18A28.47,28.47,0,0,1,419,234.55a26.84,26.84,0,0,1,5.91,4.51,21,21,0,0,1,4.69,7.13,33.4,33.4,0,0,1,1.27,19.3A34,34,0,0,1,429.5,270l-.36-.33a23.78,23.78,0,0,1,8.94-2.53,22.31,22.31,0,0,1,8.53,1.09,21.55,21.55,0,0,1,6.84,3.63,19.83,19.83,0,0,1,4.43,5,19.09,19.09,0,0,1,2.18,5.06,18.32,18.32,0,0,1,.6,4.1,16.21,16.21,0,0,1-.13,2.61c0,.27-.07.48-.09.66A1.16,1.16,0,0,1,460.39,289.6Z" style="fill:#e0e0e0"></path><path d="M429.48,289.84c-1.73-2.2-4.35-3.47-6.88-4.68l-40.52,2.75a7.25,7.25,0,0,1,4.44,3.66c1.44,2.92,1,6.44,0,9.52a14.89,14.89,0,0,0-1.24,4.54c0,1.57.8,3.31,2.33,3.7,1.88.49,3.62-1.25,4.4-3,.88-2,1.14-4.3,2.25-6.21s3.62-3.33,5.51-2.2c2,1.22,1.81,4.21,1.31,6.54q-2.19,10.1-4.37,20.19c-.68,3.12-.87,7.26,2,8.56,2.71,1.21,5.63-1.32,7.1-3.89,2.84-4.94,3.69-10.74,5.52-16.13s5.18-10.87,10.62-12.56c2.77-.87,6.12-.81,8-3S431.22,292,429.48,289.84Z" style="fill:#f5f5f5"></path><path d="M61.36,358.23c.83,1,21.09,27.85,21.09,27.85h0L121,432.17a2.4,2.4,0,0,0,2.83.65h0a2.39,2.39,0,0,0,1.39-2.43l-10-95.69L61.36,358.23" style="fill:#ebebeb"></path><path d="M121.64,397.85a2.52,2.52,0,0,1,0,.95,10.61,10.61,0,0,1-.59,2.51,32.07,32.07,0,0,1-4.23,7.32,57.45,57.45,0,0,1-5.42,6.48c-.75.77-1.39,1.37-1.84,1.77a3.11,3.11,0,0,1-.74.58c-.06,0,.88-1,2.31-2.61a75.57,75.57,0,0,0,5.27-6.52,38.22,38.22,0,0,0,4.31-7.15A18.51,18.51,0,0,0,121.64,397.85Z" style="fill:#e0e0e0"></path><path d="M119.23,376.49a8.57,8.57,0,0,1-.49,1.33c-.35.85-.89,2.06-1.59,3.54a107.18,107.18,0,0,1-6.2,11.17,108.5,108.5,0,0,1-7.48,10.36c-1,1.26-1.91,2.26-2.53,2.93a5.94,5.94,0,0,1-1,1,8.61,8.61,0,0,1,.85-1.14l2.39-3c2-2.58,4.66-6.21,7.33-10.41s4.83-8.15,6.31-11.06l1.73-3.45A6.13,6.13,0,0,1,119.23,376.49Z" style="fill:#e0e0e0"></path><path d="M117,352.13a2.66,2.66,0,0,1-.13.49c-.1.32-.24.79-.46,1.38a49.15,49.15,0,0,1-2.12,4.91,85.6,85.6,0,0,1-9.59,14.79c-4.25,5.41-8.37,10.09-11.21,13.58-1.43,1.74-2.57,3.16-3.36,4.15l-.9,1.13c-.22.26-.33.39-.35.38a1.9,1.9,0,0,1,.26-.44c.19-.28.46-.68.83-1.19.74-1,1.84-2.49,3.23-4.26,2.78-3.55,6.85-8.27,11.09-13.67A95,95,0,0,0,114,358.75c1-2,1.77-3.66,2.25-4.83A14.35,14.35,0,0,1,117,352.13Z" style="fill:#e0e0e0"></path><path d="M102.35,340.93a11.06,11.06,0,0,1-.8,1.53c-.54,1-1.36,2.35-2.41,4a148.31,148.31,0,0,1-8.89,12.7A149.66,149.66,0,0,1,80.1,370.92c-1.38,1.43-2.52,2.56-3.33,3.32a9.3,9.3,0,0,1-1.29,1.14,13.55,13.55,0,0,1,1.15-1.29c.82-.87,1.9-2,3.2-3.42,2.69-2.91,6.29-7,10-11.79s6.82-9.27,9-12.58l2.55-3.94A11,11,0,0,1,102.35,340.93Z" style="fill:#e0e0e0"></path><path d="M117.34,352.68c0,.14-5.61-1.56-12.43-3.79s-12.31-4.15-12.27-4.29,5.61,1.56,12.43,3.79S117.39,352.54,117.34,352.68Z" style="fill:#e0e0e0"></path><path d="M118.91,373.06a1.35,1.35,0,0,1-.48,0l-1.37-.22c-1.19-.19-2.89-.55-5-1.07s-4.54-1.27-7.22-2.23a84.71,84.71,0,0,1-8.51-3.67,87.12,87.12,0,0,1-8-4.65c-2.37-1.58-4.43-3.11-6.11-4.46s-3-2.49-3.86-3.32l-1-1a1.74,1.74,0,0,1-.33-.36,2.35,2.35,0,0,1,.4.28l1.06.88c.91.78,2.26,1.88,4,3.19s3.77,2.8,6.14,4.34a92,92,0,0,0,8,4.59,90.09,90.09,0,0,0,8.43,3.69c2.66,1,5.09,1.75,7.16,2.32s3.75,1,4.92,1.23l1.35.32A2.19,2.19,0,0,1,118.91,373.06Z" style="fill:#e0e0e0"></path><path d="M120.66,393.48a3.17,3.17,0,0,1-.53-.09l-1.48-.36c-1.29-.31-3.14-.82-5.41-1.49a162.88,162.88,0,0,1-34-14.46c-2.06-1.17-3.71-2.15-4.83-2.86l-1.28-.82c-.29-.19-.44-.3-.43-.32a3.06,3.06,0,0,1,.48.23l1.34.74c1.15.65,2.82,1.58,4.9,2.71,4.16,2.25,10,5.21,16.63,8s12.83,5,17.34,6.39c2.25.71,4.08,1.27,5.35,1.64l1.46.46A1.76,1.76,0,0,1,120.66,393.48Z" style="fill:#e0e0e0"></path><path d="M122.58,410.33a4.44,4.44,0,0,1-1.13,0c-.73-.06-1.78-.19-3.06-.39a64.87,64.87,0,0,1-9.9-2.34,65.62,65.62,0,0,1-9.41-3.86c-1.16-.59-2.09-1.09-2.71-1.47a4.21,4.21,0,0,1-1-.62,4.69,4.69,0,0,1,1,.45l2.78,1.31a83.52,83.52,0,0,0,9.41,3.7,86.42,86.42,0,0,0,9.8,2.47l3,.55A5.19,5.19,0,0,1,122.58,410.33Z" style="fill:#e0e0e0"></path><path d="M124.42,423.13a7.11,7.11,0,0,1-2-.06c-1.2-.11-2.86-.3-4.68-.65a30.21,30.21,0,0,1-4.56-1.25,6.42,6.42,0,0,1-1.78-.83c.06-.15,2.85.89,6.44,1.57S124.44,423,124.42,423.13Z" style="fill:#e0e0e0"></path><path d="M111.57,315c-2.74-22.42-20.07-18-20.07-18l-.28-.56A35.77,35.77,0,0,0,88.8,290C81,274.37,58.69,272.83,49,287.34c-7.31,10.92,0,23.52,0,23.52s-5.4,3.16-4.94,13.93c.31,7.27,6.65,15.65,6.65,15.65A11.75,11.75,0,0,0,44,350a9.6,9.6,0,0,0,1.59,6.87,11.21,11.21,0,0,0,13.94,3.52l55-25.4c9.32-4.31,7.6-18.16-2.52-19.9Z" style="fill:#f5f5f5"></path><path d="M51.24,311.64A29.66,29.66,0,0,0,48.82,315a17,17,0,0,0-2.09,9.61,21.57,21.57,0,0,0,3.19,9.4c1.37,2.19,2.54,3.31,2.46,3.38a4.61,4.61,0,0,1-.84-.76,17.85,17.85,0,0,1-1.93-2.42,20.58,20.58,0,0,1-3.4-9.55,16.46,16.46,0,0,1,2.3-9.85,14.09,14.09,0,0,1,1.88-2.46A4.57,4.57,0,0,1,51.24,311.64Z" style="fill:#fff"></path><path d="M57.2,284.28c0,.08-1.23.8-2.91,2.43a18.57,18.57,0,0,0-4.71,7.64,18.37,18.37,0,0,0-.45,9c.45,2.29,1.1,3.62,1,3.65a3.16,3.16,0,0,1-.49-.9,15,15,0,0,1-.88-2.67,17.42,17.42,0,0,1,5.27-17,15.48,15.48,0,0,1,2.24-1.69A3.13,3.13,0,0,1,57.2,284.28Z" style="fill:#fff"></path><path d="M51.19,356.18A6.33,6.33,0,0,1,49.66,355a10.64,10.64,0,0,1-2.84-3.68,6,6,0,0,1-.49-2.57,4.9,4.9,0,0,1,.56-2.06c.61-1.09,1.37-1.41,1.38-1.36a8.38,8.38,0,0,0-1.05,1.52,5.28,5.28,0,0,0,.08,4.27,12.25,12.25,0,0,0,2.61,3.62C50.73,355.6,51.25,356.12,51.19,356.18Z" style="fill:#fff"></path><path d="M111.93,315c-.05,0-.59-.8-1.9-2a15,15,0,0,0-6.61-3.57,15.5,15.5,0,0,0-5.22-.38,16.56,16.56,0,0,0-5.79,1.69,17.28,17.28,0,0,0-5.37,4A18.67,18.67,0,0,0,83.4,321l-.22.63-.27-.62a25.78,25.78,0,0,0-1.68-3.31,26.35,26.35,0,0,0-11.17-10.26,16.36,16.36,0,0,0-6.46-1.52,21,21,0,0,0-5.81.6,23.26,23.26,0,0,0-7.7,3.47c-1.63,1.17-2.41,2-2.45,1.94a5.92,5.92,0,0,1,.56-.59A18.26,18.26,0,0,1,50,309.83a22.49,22.49,0,0,1,7.74-3.67,21,21,0,0,1,5.9-.67A16.74,16.74,0,0,1,70.26,307a26.68,26.68,0,0,1,11.42,10.43,26.28,26.28,0,0,1,1.71,3.39h-.48a19.12,19.12,0,0,1,3.76-6.42,17.89,17.89,0,0,1,5.54-4.08,16.94,16.94,0,0,1,6-1.69,15.9,15.9,0,0,1,5.35.46,14.74,14.74,0,0,1,6.66,3.77A11.52,11.52,0,0,1,111.93,315Z" style="fill:#e0e0e0"></path><path d="M94.27,332.24c-2.21-.3-4.42.41-6.54,1.11L65.92,357.3a5.73,5.73,0,0,1,4.57-.34c2.45.89,4.15,3.14,5.23,5.5a11.94,11.94,0,0,0,1.8,3.29,2.88,2.88,0,0,0,3.38.85c1.36-.75,1.4-2.72.86-4.17-.61-1.65-1.72-3.11-2.13-4.81s.24-3.92,2-4.32,3.36,1.42,4.36,3l8.63,14c1.33,2.17,3.51,4.66,5.9,3.8,2.23-.8,2.51-3.86,1.94-6.16-1.09-4.41-3.8-8.22-5.73-12.33s-3-9.12-.82-13.1c1.12-2,3.08-3.84,2.94-6.15S96.48,332.55,94.27,332.24Z" style="fill:#f5f5f5"></path><rect x="334.42" y="27.9" width="117.68" height="122.67" style="fill:#e0e0e0"></rect><rect x="326.45" y="27.9" width="117.68" height="122.67" style="fill:#fafafa"></rect><path d="M444.17,150.6H326.42V27.86H444.17Zm-117.68-.07h117.6V27.93H326.49Z" style="fill:#e0e0e0"></path><rect x="342.27" y="44.39" width="86.04" height="89.69" style="fill:#fff"></rect><path d="M342.27,134.67a14,14,0,0,1-2.12,2.47c-1.38,1.45-3.31,3.41-5.47,5.55s-4.16,4-5.62,5.38a14.2,14.2,0,0,1-2.49,2.07,13.82,13.82,0,0,1,2.11-2.46c1.38-1.45,3.31-3.42,5.48-5.56s4.17-4,5.64-5.39A13.1,13.1,0,0,1,342.27,134.67Z" style="fill:#e0e0e0"></path><path d="M428.31,134.45a13.86,13.86,0,0,1,2.47,2.13c1.45,1.37,3.41,3.3,5.54,5.46s4,4.16,5.38,5.63a13.29,13.29,0,0,1,2.07,2.48,13.89,13.89,0,0,1-2.45-2.11c-1.45-1.37-3.42-3.31-5.56-5.48s-4-4.17-5.39-5.63A13.31,13.31,0,0,1,428.31,134.45Z" style="fill:#e0e0e0"></path><path d="M428.07,44.63a14.42,14.42,0,0,1,2.13-2.47c1.37-1.45,3.3-3.41,5.47-5.55s4.15-4,5.62-5.38a14.86,14.86,0,0,1,2.48-2.07,12.82,12.82,0,0,1-2.11,2.46c-1.37,1.45-3.31,3.42-5.48,5.56s-4.16,4-5.63,5.39A13.84,13.84,0,0,1,428.07,44.63Z" style="fill:#e0e0e0"></path><path d="M342,44.85a13.86,13.86,0,0,1-2.47-2.13c-1.45-1.37-3.42-3.3-5.55-5.46s-4-4.16-5.38-5.63a13.82,13.82,0,0,1-2.07-2.48A13.3,13.3,0,0,1,329,31.26c1.45,1.37,3.42,3.31,5.55,5.48s4.05,4.17,5.39,5.63A13.68,13.68,0,0,1,342,44.85Z" style="fill:#e0e0e0"></path><path d="M428.07,134.08s0-.16,0-.44,0-.72,0-1.25c0-1.13,0-2.74,0-4.84,0-4.25-.05-10.43-.09-18.28,0-15.71-.1-38.09-.17-64.88l.33.33-85.79.05h0l.38-.38c0,32.92,0,63.71,0,89.69l-.33-.33,62.13.17,17.45.08,4.62,0,1.19,0a1.85,1.85,0,0,1,.41,0h-.37l-1.16,0-4.56,0-17.37.09-62.34.16h-.33v-.32c0-26,0-56.77-.05-89.69V44h.39l85.79.05h.34v.33c-.07,26.88-.13,49.33-.17,65.09,0,7.82-.07,14-.09,18.2,0,2.08,0,3.67,0,4.78,0,.52,0,.92,0,1.22A1.71,1.71,0,0,1,428.07,134.08Z" style="fill:#e0e0e0"></path><rect x="370.94" y="74.88" width="28.71" height="28.71" style="fill:#ebebeb"></rect><path d="M153.67,191a7.6,7.6,0,0,0-1.56-4.3,7.25,7.25,0,0,0-3.57-2.7,6,6,0,0,0-4.68.46,5.86,5.86,0,0,0-2.08,1.94,5.91,5.91,0,0,0-6.08-3.4,7.29,7.29,0,0,0-4,2,7.62,7.62,0,0,0-2.34,3.94,9.19,9.19,0,0,0,.6,5.78,13.17,13.17,0,0,0,4.1,4.65c2.77,2,6.42,4.63,6.42,4.63s3.51-2.13,6.61-3.62a13,13,0,0,0,4.9-3.78A9.28,9.28,0,0,0,153.67,191Z" style="fill:#ebebeb"></path><path d="M59.66,198a4.32,4.32,0,0,0-.88-2.43,4.09,4.09,0,0,0-2-1.52,3.38,3.38,0,0,0-2.64.26,3.33,3.33,0,0,0-1.17,1.1,3.26,3.26,0,0,0-.88-1.17,3.39,3.39,0,0,0-2.54-.75,4.07,4.07,0,0,0-2.26,1.11A4.28,4.28,0,0,0,46,196.81a5.21,5.21,0,0,0,.34,3.26,7.52,7.52,0,0,0,2.3,2.62c1.56,1.15,3.62,2.61,3.62,2.61s2-1.2,3.73-2a7.3,7.3,0,0,0,2.75-2.13A5.22,5.22,0,0,0,59.66,198Z" style="fill:#ebebeb"></path><path d="M116.49,37a4.23,4.23,0,0,0-.87-2.43,4.14,4.14,0,0,0-2-1.52,3.31,3.31,0,0,0-3.81,1.36,3.32,3.32,0,0,0-3.42-1.92,4.13,4.13,0,0,0-2.27,1.11,4.25,4.25,0,0,0-1.31,2.22,5.11,5.11,0,0,0,.34,3.25,7.24,7.24,0,0,0,2.3,2.62c1.56,1.15,3.62,2.61,3.62,2.61s2-1.2,3.72-2a7.34,7.34,0,0,0,2.76-2.13A5.21,5.21,0,0,0,116.49,37Z" style="fill:#ebebeb"></path><path d="M457.07,185.53a4.32,4.32,0,0,0-.88-2.43,4,4,0,0,0-2-1.52,3.33,3.33,0,0,0-3.81,1.36,3.14,3.14,0,0,0-.88-1.16A3.36,3.36,0,0,0,447,181a4.07,4.07,0,0,0-2.26,1.11,4.27,4.27,0,0,0-1.32,2.22,5.18,5.18,0,0,0,.34,3.25,7.52,7.52,0,0,0,2.3,2.62c1.56,1.15,3.62,2.61,3.62,2.61s2-1.2,3.73-2a7.41,7.41,0,0,0,2.76-2.13A5.21,5.21,0,0,0,457.07,185.53Z" style="fill:#ebebeb"></path></g><g id="freepik--Table--inject-101"><path d="M473.34,480.81c0,.15-100.45.27-224.33.27S24.66,481,24.66,480.81s100.43-.26,224.35-.26S473.34,480.67,473.34,480.81Z" style="fill:#263238"></path></g><g id="freepik--Plant--inject-101"><path d="M391,436.84s-23-26.5-31.71-53-4.56-23.46-4.56-23.46,11.73,25.74,20.63,38.18,24.77,30.68,24.77,30.68Z" style="fill:#455a64"></path><path d="M395.6,364.51a1.34,1.34,0,0,0-2.49.85c1.4,9.31,4.43,31.16,4.32,45.32-.16,18.41,0,25.52,0,25.52H407s-1.7-38-3.86-49.65C401.63,378.42,398.41,369.39,395.6,364.51Z" style="fill:#455a64"></path><path d="M400.83,433.11a101.57,101.57,0,0,0,7.89-28.61c.79-6.78-.62-15.93-2.72-28.15a76.58,76.58,0,0,1-1.21-13.55,2.28,2.28,0,0,1,4.29-1.07c1.16,2.06,4.51,9.11,5.36,13.53,2.32,12.07,4.95,18.1,2.94,29.55s-9.44,29.07-9.44,29.07Z" style="fill:#455a64"></path><path d="M409.46,433.88s25.28-54.33,27-62.39,7.71-26.63,8.41-25.58,1.76,10.86-2.8,22.08-24,67.55-24,67.55h-8.63" style="fill:#455a64"></path><path d="M398.06,431.45a4.29,4.29,0,0,1-.71-.48c-.45-.34-1.13-.82-2-1.5a88.57,88.57,0,0,1-6.79-6,113.82,113.82,0,0,1-18.34-23.54,154,154,0,0,1-12.52-27.12c-1.27-3.61-2.2-6.56-2.8-8.61-.31-1-.53-1.83-.68-2.37a5.1,5.1,0,0,1-.19-.84,5.06,5.06,0,0,1,.3.81l.77,2.34c.66,2,1.64,5,3,8.54a163.76,163.76,0,0,0,12.62,27,119.19,119.19,0,0,0,18.15,23.54c2.7,2.69,5,4.74,6.66,6.11.8.7,1.46,1.2,1.89,1.57A6,6,0,0,1,398.06,431.45Z" style="fill:#263238"></path><path d="M400.83,405.39a8.72,8.72,0,0,1-.23-1.6l-.47-4.35c-.4-3.68-1-8.75-1.92-14.31s-1.89-10.58-2.66-14.2l-.92-4.28a10.13,10.13,0,0,1-.29-1.59,9.06,9.06,0,0,1,.49,1.54c.28,1,.66,2.45,1.09,4.25.87,3.6,1.93,8.61,2.83,14.19s1.46,10.67,1.76,14.36c.16,1.85.26,3.34.3,4.38A11.64,11.64,0,0,1,400.83,405.39Z" style="fill:#263238"></path><path d="M406.75,361.3a4,4,0,0,1,.3.69l.75,2c.34.88.72,2,1.09,3.24s.86,2.71,1.23,4.35c.2.81.41,1.66.62,2.55s.37,1.83.56,2.8c.41,1.93.67,4,1,6.21a93.09,93.09,0,0,1-1,28.72c-.47,2.17-.87,4.24-1.42,6.14-.26,1-.48,1.87-.76,2.74s-.55,1.71-.8,2.51c-.49,1.6-1.08,3-1.54,4.25s-.92,2.3-1.32,3.15l-.9,2a4.9,4.9,0,0,1-.34.66,4,4,0,0,1,.25-.71l.8-2c.37-.86.8-1.92,1.23-3.18s1-2.65,1.45-4.26c.25-.8.51-1.63.77-2.5s.47-1.8.73-2.75c.52-1.89.91-3.95,1.36-6.11a107.17,107.17,0,0,0,1.58-14.25,104.28,104.28,0,0,0-.56-14.32c-.29-2.18-.53-4.27-.92-6.19-.18-1-.32-1.9-.52-2.79s-.4-1.74-.59-2.55c-.34-1.64-.8-3.08-1.15-4.36s-.69-2.37-1-3.25-.49-1.53-.66-2.05A3.74,3.74,0,0,1,406.75,361.3Z" style="fill:#263238"></path><path d="M444.62,347a2.25,2.25,0,0,1,0,.25l-.12.7c-.11.62-.25,1.54-.5,2.71-.48,2.33-1.3,5.7-2.56,9.78s-3,8.86-5,14.12-4.41,11-6.65,17.09-4,12-5.69,17.43-3.18,10.24-4.68,14.25a90.28,90.28,0,0,1-4,9.29c-.52,1.07-1,1.88-1.29,2.43l-.35.62c-.08.14-.13.21-.14.2l.09-.23c.09-.17.19-.38.31-.64.27-.57.7-1.39,1.19-2.48,1-2.15,2.39-5.32,3.82-9.33s3-8.85,4.57-14.25,3.37-11.37,5.65-17.47,4.64-11.84,6.7-17.09,3.83-10,5.13-14.06,2.18-7.39,2.73-9.71c.28-1.16.45-2.07.6-2.68.06-.28.12-.51.16-.69A.75.75,0,0,1,444.62,347Z" style="fill:#263238"></path><path d="M366.66,335a2.18,2.18,0,0,0-3.59,2.22,63.19,63.19,0,0,0,3.18,8.17c3.48,7.39,13.69,33.89,18.46,48.44s11.52,41.71,11.52,41.71l10.2-1.66S397.1,389.27,388,373.2C380.64,360.28,373.31,341.61,366.66,335Z" style="fill:#455a64"></path><path d="M387.51,402.93a6.89,6.89,0,0,1,.52,1.23c.31.8.72,2,1.18,3.42.94,2.92,2.09,7,3.25,11.5s2.12,8.63,2.79,11.61c.3,1.41.56,2.59.77,3.54a6.73,6.73,0,0,1,.21,1.31,6.24,6.24,0,0,1-.42-1.26l-.93-3.5c-.78-3.07-1.81-7.1-2.94-11.57s-2.25-8.58-3.1-11.52l-1-3.47A5.64,5.64,0,0,1,387.51,402.93Z" style="fill:#263238"></path><path d="M401.35,434.71s0-.09-.05-.27-.07-.48-.12-.8c-.11-.71-.2-1.76-.42-3.09-.37-2.69-1-6.55-2.14-11.26A163.47,163.47,0,0,0,393.85,403c-2.1-6-4.72-12.57-7.7-19.34-6-13.5-12-25.48-15.94-34.34-2-4.42-3.53-8-4.55-10.54-.52-1.25-.89-2.24-1.15-2.9-.11-.31-.21-.56-.28-.76a1.22,1.22,0,0,1-.08-.27,1.24,1.24,0,0,1,.13.25c.09.19.2.44.33.74.3.69.72,1.65,1.24,2.86,1.08,2.49,2.67,6.07,4.71,10.46,4,8.81,10.07,20.76,16.09,34.29,3,6.77,5.59,13.32,7.67,19.39A156.57,156.57,0,0,1,399,419.2a113.85,113.85,0,0,1,2,11.32c.18,1.34.25,2.39.32,3.1,0,.33,0,.6.06.81A1,1,0,0,1,401.35,434.71Z" style="fill:#263238"></path><path d="M406.43,433.88a12.61,12.61,0,0,1-.34-1.71c-.2-1.2-.47-2.78-.8-4.69-.7-4-1.77-9.4-3.32-15.33s-3.25-11.21-4.57-15c-.65-1.83-1.19-3.34-1.6-4.48a11.33,11.33,0,0,1-.54-1.67,11.07,11.07,0,0,1,.74,1.59c.44,1,1.05,2.54,1.76,4.43a149.49,149.49,0,0,1,4.74,15,156,156,0,0,1,3.17,15.41c.29,2,.51,3.6.63,4.72A10.22,10.22,0,0,1,406.43,433.88Z" style="fill:#263238"></path><rect x="387.54" y="432.42" width="39.83" height="48.53" style="fill:#FF725E"></rect><g style="opacity:0.30000000000000004"><rect x="387.54" y="432.42" width="39.83" height="48.53"></rect></g><rect x="379.33" y="432.42" width="35.34" height="48.53" style="fill:#FF725E"></rect></g><g id="freepik--Hearts--inject-101"><path d="M328.29,205.49a4.62,4.62,0,0,0-.93-2.59,4.43,4.43,0,0,0-2.15-1.62,3.63,3.63,0,0,0-2.81.28,3.42,3.42,0,0,0-1.25,1.17,3.49,3.49,0,0,0-.94-1.24,3.65,3.65,0,0,0-2.71-.81,4.41,4.41,0,0,0-2.42,1.19,4.64,4.64,0,0,0-1.41,2.36,5.55,5.55,0,0,0,.37,3.48,7.93,7.93,0,0,0,2.46,2.79c1.66,1.23,3.86,2.78,3.86,2.78s2.1-1.28,4-2.17a7.94,7.94,0,0,0,2.95-2.27A5.61,5.61,0,0,0,328.29,205.49Z" style="fill:#FF725E"></path><path d="M197.16,60.38a8.18,8.18,0,0,0-1.95-4.47,7.83,7.83,0,0,0-4-2.62,6.37,6.37,0,0,0-4.94.82,6.29,6.29,0,0,0-2.08,2.21,6.28,6.28,0,0,0-1.81-2.09,6.4,6.4,0,0,0-4.89-1.11,7.79,7.79,0,0,0-4.14,2.37,8.11,8.11,0,0,0-2.21,4.35,9.88,9.88,0,0,0,1,6.11,14,14,0,0,0,4.67,4.65c3.09,2,7.16,4.49,7.16,4.49s3.57-2.51,6.77-4.31a14,14,0,0,0,5-4.36A9.91,9.91,0,0,0,197.16,60.38Z" style="fill:#FF725E"></path><path d="M120.35,239.49a8.48,8.48,0,0,0-2.56-4.41,8.1,8.1,0,0,0-4.46-2.24,6.7,6.7,0,0,0-5,1.44,6.6,6.6,0,0,0-1.89,2.55,6.57,6.57,0,0,0-7.35-2.51,8.16,8.16,0,0,0-4,3,8.46,8.46,0,0,0-1.78,4.78,10.39,10.39,0,0,0,1.82,6.22,14.64,14.64,0,0,0,5.42,4.27c3.45,1.69,8,3.79,8,3.79s3.41-3,6.52-5.29a14.66,14.66,0,0,0,4.62-5.13A10.32,10.32,0,0,0,120.35,239.49Z" style="fill:#FF725E"></path><path d="M383.63,180.46a9.18,9.18,0,0,0-2.43-5,8.83,8.83,0,0,0-4.65-2.79,7.17,7.17,0,0,0-7.85,3.77,7.13,7.13,0,0,0-7.76-3.31,8.83,8.83,0,0,0-4.6,2.9,9.22,9.22,0,0,0-2.31,5,11.23,11.23,0,0,0,1.48,6.9,15.76,15.76,0,0,0,5.54,5.06c3.6,2.12,8.34,4.76,8.34,4.76s3.95-3,7.51-5.22a15.82,15.82,0,0,0,5.41-5.19A11.2,11.2,0,0,0,383.63,180.46Z" style="fill:#FF725E"></path></g><g id="freepik--Character--inject-101"><path d="M270.06,55.52a12.9,12.9,0,0,1,10.76-3.92c1.6.2,3.35.66,4.73-.17a10.28,10.28,0,0,0,2.24-2.61,6.53,6.53,0,0,1,9.39-.31A7.43,7.43,0,0,0,299,50.32c3.13,1.62,6.54-4.25,9.65-2.61a7.44,7.44,0,0,0-3.46,2.76,3.36,3.36,0,0,0,.41,4.12c2.93,2.54,7.69-3.22,10.95-1.11,1.76,1.13,2,4.11,4.06,4.59a7.27,7.27,0,0,0,2.4-.19,5.37,5.37,0,0,1,5.73,4.58c.25,2.31-.9,5.15.85,6.68,1.08,1,2.71.79,4.13.57a14,14,0,0,1-1.48,6.13,8.43,8.43,0,0,1,2.89,11.31,18.06,18.06,0,0,1,4.88,4.94c1.16,2,1.44,4.72.08,6.61a5.73,5.73,0,0,0-.88,1.32,3.13,3.13,0,0,0,0,1.69c.45,2.17,1.42,4.26,1.36,6.47s-1.68,4.65-3.88,4.47c-.51,0-1.08-.21-1.51.07a1.48,1.48,0,0,0-.53,1,14.84,14.84,0,0,0,.35,4.73,6.36,6.36,0,0,1-.69,4.61c-.92,1.29-3.09,1.75-4.09.51q1,3.69,1.93,7.37c.39,1.47.7,3.23-.36,4.31-1.39,1.41-3.92.32-5-1.35s-1.37-3.74-2.48-5.38a12.18,12.18,0,0,1-1.35-2c-.24-.59-.33-1.3-.82-1.7-1-.81-2.51.58-2.37,1.86s1.16,2.24,2,3.23,1.48,2.41.83,3.52c-.31.54-.88.89-1.18,1.43-1,1.88,1.72,3.69,2.06,5.81.24,1.56-.89,3-2,4.11-1.36,1.37-4,2.49-4.88.76a18,18,0,0,1-.43-2,4.92,4.92,0,0,0-1.53-1.75,10.05,10.05,0,0,1-3-4.93c1.64,2,3.37,4.66,2.23,7a10.93,10.93,0,0,1-2.13,2.44c-1.46,1.54-2.37,3.54-3.81,5.1s-3.83,2.63-5.69,1.6a4.79,4.79,0,0,1-8,4.8,4.09,4.09,0,0,0-1.31-1.15,3.41,3.41,0,0,0-1.87.06,10.36,10.36,0,0,1-10-4l1.89-.68c-3.73-.47-7.62-1-10.74-3.1s-5.15-6.33-3.55-9.74c.69-1.47,2-3,1.4-4.5-.42-1-1.6-1.52-2.66-1.88l-13.34-4.61c-2.16-.75-4.43-1.57-5.88-3.34s-1.58-4.8.31-6.08a12.25,12.25,0,0,0-4.64-5c-2.22-1.32-4.81-1.9-7.09-3.11s-4.35-3.42-4.21-6,3.69-4.59,5.48-2.72c-.38-3.88-7.29-4.08-7.91-7.93-.5-3.12,3.49-4.77,5.54-7.18-.43-1.09-1.54-1.78-2-2.85-1-2.25,1.36-4.51,3.56-5.57s4.89-2.15,5.41-4.54-1.57-5.19-.29-7.33a2.77,2.77,0,0,1,3.63-.93c1.75-4.48,10.19-1.16,12.62-5.32a1.72,1.72,0,0,0,.28-1.08,1.79,1.79,0,0,0-.43-.87c-1-1.22-2.48-1.87-3.72-2.82s-2.29-2.55-1.74-4,3.32-1.43,3.3.13A3.43,3.43,0,0,1,261.54,53c1.07-1.31,3.18-1.31,4.65-.45a10.86,10.86,0,0,1,3.34,3.77" style="fill:#263238"></path><path d="M291.53,104.8c-1.57-6.38-6.45-11.44-11.79-15.27a16.87,16.87,0,0,0-7.42-3.43c-2.73-.35-5.81.7-7.12,3.12l.51,4.58c-.36,7.32,5.45,13.28,8.33,20,1.25,2.93,2.31,6.46,5.27,7.64a6.88,6.88,0,0,0,4.89-.19C290.34,118.93,293.1,111.17,291.53,104.8Z" style="fill:#FF725E"></path><path d="M293.18,138.51a14.68,14.68,0,0,0-2.13-18.7c2.53-3.49,1.34-8.64-1.53-11.86s-7-4.94-11-6.58C276,91.61,264.58,85.17,254.88,88c-5.44-7.28-16.38-8-25-5a23.11,23.11,0,0,1-6.41,1.69,36.14,36.14,0,0,1-4.86-.45c-8.92-.8-17.45,5.83-20.55,14.24a16.13,16.13,0,0,1-1.71,3.92c-1.09,1.54-2.79,2.49-4.23,3.7a14.19,14.19,0,0,0-5,10.71c0,3.45,1.26,7.06-.05,10.25-.66,1.6-1.91,2.92-2.41,4.58-1.43,4.81,4,9.41,3.27,14.37-.15,1-.56,2-.8,3A8.74,8.74,0,0,0,188,155c.76,1.43,1.95,2.71,2.11,4.31a14.12,14.12,0,0,1-.55,3.62c-.47,3,6.35,14,9,15.47l75.76-2.67A14.16,14.16,0,0,0,284.69,163a5.22,5.22,0,0,1,.58-2.81,6.21,6.21,0,0,1,2-1.44c4.76-2.83,5.05-9.55,4.3-15a6.65,6.65,0,0,1-.06-2.31A8.28,8.28,0,0,1,293.18,138.51Z" style="fill:#263238"></path><path d="M271.6,139.58c-.37-13.41-9.45-28.44-23.05-34.41-8.58-3.76-15.13-3.5-19.56-3.82a30.74,30.74,0,0,0-17.7,4.54c-4.13,1.16-18.81,15.84-18.93,31.07-.14,16.93.36,37.6,3,50.07,5.41,25.08,25,27.24,25,27.24s.35,14.13.35,14.13L249,239.47l25-11.07Z" style="fill:#a26760"></path><path d="M233,181.16a5.35,5.35,0,0,0-1.85-3.29,5.44,5.44,0,0,0-6.62-.38,7.31,7.31,0,0,0-2.78,6.86h0a6.66,6.66,0,0,0,4.76,2.76c.3,0,.59,0,.89,0a6,6,0,0,0,4-1.6A5.3,5.3,0,0,0,233,181.16Z" style="fill:#7b4b45"></path><path d="M201.72,156.52a3.25,3.25,0,0,0,3.31,3.1,3.1,3.1,0,0,0,3.18-3.11,3.24,3.24,0,0,0-3.3-3.1A3.11,3.11,0,0,0,201.72,156.52Z" style="fill:#263238"></path><path d="M198.59,146.36c.42.4,2.78-1.55,6.28-1.74s6.14,1.43,6.5,1c.17-.2-.28-.94-1.44-1.69a8.88,8.88,0,0,0-5.23-1.31,8.54,8.54,0,0,0-5,1.91C198.7,145.39,198.38,146.18,198.59,146.36Z" style="fill:#263238"></path><path d="M220.53,172.81c0-.2-2.18-.45-5.72-.71-.9,0-1.75-.17-1.94-.77a4.64,4.64,0,0,1,.45-2.68l2.27-6.93c3.13-9.87,5.34-18,4.94-18.09s-3.26,7.78-6.39,17.65l-2.15,7c-.28,1-.8,2.22-.27,3.53a2.25,2.25,0,0,0,1.54,1.22,5.64,5.64,0,0,0,1.52.13C218.33,173.12,220.53,173,220.53,172.81Z" style="fill:#263238"></path><path d="M220.39,214.27a64.5,64.5,0,0,0,33.39-10.9s-7.75,18.07-33.2,17.09Z" style="fill:#7b4b45"></path><path d="M230.94,174.66c-.57,0-.37,3.79-3.46,6.66s-7.16,2.67-7.16,3.21c0,.24.94.68,2.65.64a9.44,9.44,0,0,0,6-2.47,8.24,8.24,0,0,0,2.67-5.56C231.68,175.54,231.2,174.63,230.94,174.66Z" style="fill:#263238"></path><path d="M199.28,133.2c.64.82,3.28.1,6.42.19s5.77.77,6.41,0c.29-.39-.1-1.2-1.23-2a10,10,0,0,0-10.34-.13C199.4,132,199,132.8,199.28,133.2Z" style="fill:#263238"></path><path d="M240.32,155a3.24,3.24,0,0,1-3.07,3.34,3.11,3.11,0,0,1-3.4-2.88,3.25,3.25,0,0,1,3.07-3.33A3.11,3.11,0,0,1,240.32,155Z" style="fill:#263238"></path><path d="M246.44,145.11c-.39.43-2.89-1.35-6.38-1.28s-6,1.86-6.42,1.44c-.19-.19.21-1,1.31-1.79a8.94,8.94,0,0,1,5.13-1.68,8.48,8.48,0,0,1,5.09,1.55C246.26,144.15,246.64,144.91,246.44,145.11Z" style="fill:#263238"></path><path d="M246.79,133.34c-.68.81-3.39,0-6.63,0s-6,.64-6.63-.18c-.29-.4.13-1.2,1.32-2a10,10,0,0,1,5.37-1.4,9.86,9.86,0,0,1,5.31,1.5C246.7,132.14,247.09,133,246.79,133.34Z" style="fill:#263238"></path><path d="M268.73,163.78c-.1-1.88,1.83-6.45,3.68-6.84,4.93-1.05,13.91-1.14,14.68,11.48,1.06,17.24-16.47,14.75-16.53,14.26S269.07,170.29,268.73,163.78Z" style="fill:#a26760"></path><path d="M274.93,176.09c.07-.06.31.19.83.39a3,3,0,0,0,2.25-.09c1.78-.78,3.14-3.77,3-6.88a9.89,9.89,0,0,0-1.1-4.25,3.51,3.51,0,0,0-2.4-2.17,1.53,1.53,0,0,0-1.73.93c-.2.5-.07.84-.16.87s-.39-.27-.29-1a2,2,0,0,1,.61-1.12,2.29,2.29,0,0,1,1.64-.54,4.24,4.24,0,0,1,3.3,2.48,10.21,10.21,0,0,1,1.34,4.74c.1,3.49-1.48,6.85-3.93,7.72a3.19,3.19,0,0,1-2.77-.29C275,176.5,274.87,176.12,274.93,176.09Z" style="fill:#7b4b45"></path><path d="M188.43,137.41c3.37-2.36,5.43-5.45,5-9.54,2.35.56,4.54-2.54,5.78-4.62s2.83-3.17,2.6-5.57a2.68,2.68,0,0,1,.1-1.41c.31-.68,1.12-.94,1.82-1.2a11.59,11.59,0,0,0,7.18-8.45,24.46,24.46,0,0,0,11.93,1.31,9.35,9.35,0,0,0,15.77-1.54,8.42,8.42,0,0,0,5.83,3.83,25,25,0,0,0,7.18,0,9.91,9.91,0,0,0,7.12,10.85c.62.16,1.34.3,1.66.86a2.51,2.51,0,0,1-.17,1.94A7.8,7.8,0,0,0,266,133.5a5.82,5.82,0,0,0,1,9.08c.64.34,1.49.75,1.43,1.48a1.59,1.59,0,0,1-.34.76c-1.19,1.78-2.37,3.71-2.41,5.85s1.53,4.45,3.67,4.43a5.5,5.5,0,0,0-2,3.9c.06,1.5,1.65,2.94,3,2.32.59-.26,9.09-2.41,9.44-2.95,4.52-6.89-2-13.88-2.95-22.07a53.37,53.37,0,0,0-8.72-22.9,38.81,38.81,0,0,0-6.57-8A52,52,0,0,0,251.71,99c-4.5-2.48-9.13-4.94-14.19-5.85-9.43-1.69-18.92,2.21-27.39,6.7a40.46,40.46,0,0,0-9.07,6,36.66,36.66,0,0,0-7.34,10.74c-2.78,5.65-5,11.71-5.29,18" style="fill:#263238"></path><path d="M184.72,131.56a6.85,6.85,0,0,1,.83-1.9c.34-.59.82-1.29,1.26-2.17a8,8,0,0,0,.8-3.28,24.41,24.41,0,0,0-.31-4.26,18.85,18.85,0,0,1-.13-5.13,14.33,14.33,0,0,1,4-8.11,21.26,21.26,0,0,1,2.62-2.17,10.74,10.74,0,0,0,2.5-2.4,13.63,13.63,0,0,0,1.46-3.34A23.24,23.24,0,0,1,208,86.41a21,21,0,0,1,4.08-1.78,18.74,18.74,0,0,1,4.5-.75,20.32,20.32,0,0,1,2.34.06c.78.08,1.54.2,2.31.3a11.27,11.27,0,0,0,4.62-.24c1.52-.39,3-1,4.58-1.5a31.37,31.37,0,0,1,4.85-1.13,30.25,30.25,0,0,1,5.05-.31,26.89,26.89,0,0,1,5.11.66,17,17,0,0,1,9,5.28l.69.81-.29-.09a20.06,20.06,0,0,1,24,13.59l-.15-.17a56,56,0,0,1,6.22,2.88,18.26,18.26,0,0,1,5.17,4.16,11.92,11.92,0,0,1,2.56,5.83,8.13,8.13,0,0,1-1.35,5.92l0-.29a14.31,14.31,0,0,1,4.44,8.65,14.22,14.22,0,0,1-2.4,10.44c-.39.55-.79,1.06-1.1,1.6a3.68,3.68,0,0,0-.53,1.73,10.8,10.8,0,0,0,.14,1.79,28.09,28.09,0,0,1,.16,6.55,13.76,13.76,0,0,1-1.43,5.08,8.59,8.59,0,0,1-2.54,2.94c-.86.63-1.63.9-2.06,1.24a4.5,4.5,0,0,0-.6.56,2,2,0,0,1,.56-.61c.42-.36,1.2-.66,2-1.3a8.44,8.44,0,0,0,2.45-2.92,13.84,13.84,0,0,0,1.36-5,28.36,28.36,0,0,0-.22-6.49,11,11,0,0,1-.15-1.85,3.94,3.94,0,0,1,.55-1.87,17.61,17.61,0,0,1,1.12-1.64,12.72,12.72,0,0,0,1-1.72,14.25,14.25,0,0,0,1.27-8.46A13.87,13.87,0,0,0,290.9,120l-.14-.13.11-.16a7.71,7.71,0,0,0,1.25-5.61,11.38,11.38,0,0,0-2.48-5.6,17.54,17.54,0,0,0-5-4,55.25,55.25,0,0,0-6.17-2.84l-.11,0,0-.12A19.55,19.55,0,0,0,255,88.22l-.16,0-.12-.14-.66-.79a16.52,16.52,0,0,0-8.72-5.11,26.57,26.57,0,0,0-5-.66,30.44,30.44,0,0,0-5,.31,29.13,29.13,0,0,0-4.76,1.1c-1.55.47-3.05,1.11-4.62,1.5a12.24,12.24,0,0,1-2.4.38,14.74,14.74,0,0,1-2.4-.14c-.78-.09-1.54-.22-2.3-.3a21.58,21.58,0,0,0-2.27-.06,17.91,17.91,0,0,0-4.39.72,20.22,20.22,0,0,0-4,1.73,22.84,22.84,0,0,0-10.1,12.13,14.57,14.57,0,0,1-1.52,3.42,11,11,0,0,1-2.6,2.47,21.15,21.15,0,0,0-2.59,2.13,13.11,13.11,0,0,0-2,2.48,14.1,14.1,0,0,0-2,5.42,18.46,18.46,0,0,0,.09,5.06,24.42,24.42,0,0,1,.26,4.31,8.27,8.27,0,0,1-.86,3.33c-.47.89-1,1.57-1.31,2.15a10.57,10.57,0,0,0-.72,1.36C184.78,131.39,184.73,131.57,184.72,131.56Z" style="fill:#455a64"></path><path d="M246.58,84.6s-.47-.24-1.33-.6a11.62,11.62,0,0,0-3.82-.9,10.83,10.83,0,0,0-5.63,1.12,11.28,11.28,0,0,0-4.92,4.94,9.72,9.72,0,0,0-.75,2,2.15,2.15,0,0,0,.22,1.81l.45.56-.71-.16a7.14,7.14,0,0,0-5.3.92A6.94,6.94,0,0,0,222,97.63a7.49,7.49,0,0,0-.52,2.88c0,.69.08,1.07,0,1.08a1.1,1.1,0,0,1-.09-.27,4.56,4.56,0,0,1-.13-.8,7.22,7.22,0,0,1,3.23-6.6,7.52,7.52,0,0,1,5.65-1l-.26.4a2.65,2.65,0,0,1-.33-2.23,10,10,0,0,1,.8-2.12,11.51,11.51,0,0,1,5.17-5.14,11.06,11.06,0,0,1,5.87-1.06,10.77,10.77,0,0,1,3.87,1.08,8.51,8.51,0,0,1,.95.55Q246.6,84.59,246.58,84.6Z" style="fill:#455a64"></path><path d="M275.61,103a2.69,2.69,0,0,1-.57.65,12.07,12.07,0,0,1-1.89,1.46,8.26,8.26,0,0,1-3.38,1.21,6.21,6.21,0,0,1-4.36-1.07l.38-.08-.47.73c-.17.24-.36.48-.55.71a10.46,10.46,0,0,1-4.17,2.91,10.66,10.66,0,0,1-4.08.73,9.44,9.44,0,0,1-2.76-.48,3.29,3.29,0,0,1-.92-.43,15.14,15.14,0,0,0,3.68.54,10.9,10.9,0,0,0,3.9-.8,10.41,10.41,0,0,0,4-2.8c.17-.23.36-.45.52-.67l.45-.7.15-.24.23.17a5.79,5.79,0,0,0,4,1,8.24,8.24,0,0,0,3.26-1C274.7,103.78,275.55,102.88,275.61,103Z" style="fill:#455a64"></path><path d="M285.56,118.48s0,.11,0,.32a2.84,2.84,0,0,1-.34.85,4.64,4.64,0,0,1-2.68,2,8.83,8.83,0,0,1-5-.28c-.89-.27-1.82-.54-2.78-.93a4.72,4.72,0,0,1-2.49-2l-.13-.27.42.1a19.94,19.94,0,0,1-5,3.34,8.84,8.84,0,0,1-4.82.75,6.47,6.47,0,0,1-3.06-1.2,3.6,3.6,0,0,1-.65-.61c-.14-.15-.2-.24-.18-.25s.32.28,1,.7a6.75,6.75,0,0,0,3,1,8.71,8.71,0,0,0,4.59-.83,20.41,20.41,0,0,0,4.81-3.29l.26-.23.15.33.1.23A4.35,4.35,0,0,0,275,120c.91.38,1.84.66,2.72.94a8.68,8.68,0,0,0,4.72.38,4.61,4.61,0,0,0,2.61-1.74A6.74,6.74,0,0,0,285.56,118.48Z" style="fill:#455a64"></path><path d="M300.82,55.9s-.3,0-.81.19a3.92,3.92,0,0,0-1.86,1.34A5.39,5.39,0,0,0,297,60.8a15.79,15.79,0,0,0,.89,4.67l.09.27h-.29a9.78,9.78,0,0,0-5.87,2.14,7.63,7.63,0,0,0-3,6.21,7.11,7.11,0,0,0,2.81,5.62l.61.42-.74,0a8.93,8.93,0,0,0-6.39,3.22,8.56,8.56,0,0,0-1.93,5.41,9.28,9.28,0,0,0,.78,3.78c.37.84.66,1.25.63,1.27s-.1-.09-.24-.28a7.57,7.57,0,0,1-.55-.91,9.14,9.14,0,0,1-.94-3.86,8.75,8.75,0,0,1,1.91-5.68,9.29,9.29,0,0,1,6.71-3.45l-.14.46a7.57,7.57,0,0,1-3-6,7.83,7.83,0,0,1,.83-3.77,8.65,8.65,0,0,1,2.33-2.84,10.19,10.19,0,0,1,6.18-2.19l-.21.28a16,16,0,0,1-.82-4.8A5.59,5.59,0,0,1,298,57.27,3.9,3.9,0,0,1,300,56a3.12,3.12,0,0,1,.63-.08C300.75,55.88,300.82,55.89,300.82,55.9Z" style="fill:#455a64"></path><path d="M333.57,91.68s-.09.07-.27.18a8.36,8.36,0,0,1-.84.44,12.19,12.19,0,0,1-3.44,1,13.63,13.63,0,0,1-5.45-.37,13,13,0,0,1-6-3.5l.39-.05a11,11,0,0,1-7.49,5.73A8.33,8.33,0,0,1,301.62,91l.45,0a7,7,0,0,1-1.93,3,9.35,9.35,0,0,1-2.74,1.75,12.68,12.68,0,0,1-5.23.82,24.75,24.75,0,0,1-3.41-.37,6.17,6.17,0,0,1-1.2-.26,7.86,7.86,0,0,1,1.22.11,33,33,0,0,0,3.4.23,12.82,12.82,0,0,0,5.06-.91,7.46,7.46,0,0,0,4.36-4.55l.18-.59.27.55a7.88,7.88,0,0,0,8.31,3.83,10.61,10.61,0,0,0,7.15-5.45l.16-.3.23.24a12.81,12.81,0,0,0,5.78,3.45A13.66,13.66,0,0,0,329,93,16.06,16.06,0,0,0,333.57,91.68Z" style="fill:#455a64"></path><path d="M316.8,117.87s0,.13-.19.32a1.75,1.75,0,0,1-.95.49,8,8,0,0,1-3.85-.44,9.33,9.33,0,0,1-4.58-3.43,9.64,9.64,0,0,1-1.63-6.8V108l.38.26a11.25,11.25,0,0,1-6.86,1.32,12.54,12.54,0,0,1-5.36-2,13.72,13.72,0,0,1-2.9-2.53,5.51,5.51,0,0,1-.84-1.13,21.37,21.37,0,0,0,3.93,3.35,12.58,12.58,0,0,0,5.22,1.82,10.87,10.87,0,0,0,6.55-1.29l.45-.26-.06.53v0a9.13,9.13,0,0,0,5.83,9.81,8.41,8.41,0,0,0,3.68.58A1.84,1.84,0,0,0,316.8,117.87Z" style="fill:#455a64"></path><path d="M263.14,58.51a14.69,14.69,0,0,0-.5,5.34,11.6,11.6,0,0,0,7.45,9.72,11.69,11.69,0,0,0,4,.81h.32l-.08.31a15.26,15.26,0,0,0-.34,5.6,15.86,15.86,0,0,0,1.21,4.33,10.3,10.3,0,0,0,.79,1.5,1.31,1.31,0,0,0,.95.66.86.86,0,0,0,.68-.25c.12-.13.13-.23.15-.22s0,.11-.08.27a.9.9,0,0,1-.75.37,1.48,1.48,0,0,1-1.16-.68,9.55,9.55,0,0,1-.87-1.51,15,15,0,0,1-1.07-10.2l.24.32a12.48,12.48,0,0,1-4.18-.83,12.23,12.23,0,0,1-5.69-4.54,12.1,12.1,0,0,1-1.94-5.64,11.62,11.62,0,0,1,.34-4,7.61,7.61,0,0,1,.36-1C263.06,58.62,263.12,58.5,263.14,58.51Z" style="fill:#455a64"></path><path d="M182.1,389.05l-9.57,18.59s28.72,22.8,58,22.8S300.79,416,300.79,416V391.84Z" style="fill:#a26760"></path><path d="M220.74,228.4,201,235.21s24.6,22.25,42.64,22,43.11-8.68,47.09-14.42,3.71-7.75,3.71-7.75L274,228.4l-23.79-9.22Z" style="fill:#a26760"></path><path d="M139.9,314.5s14.2-62.34,17.42-67.54,51.46-12.64,51.46-12.64,18.5,22.33,49.22,14.88,33.61-14.88,33.61-14.88,42.24,12.56,46.08,16.74,22.9,73.39,22.9,73.39l-46.34,5.46,2.8,70.45s-61.45,3.26-75.85,1.86S177,393.39,172.59,392,162.2,319.9,162.2,319.9Z" style="fill:#455a64"></path><g style="opacity:0.30000000000000004"><path d="M194.59,294.37a6.42,6.42,0,0,0-3-3.65c-2.47-1.06-5.14.85-7.16,2.63-5.93,5.24-12.07,10.76-14.93,18.14-2.27,5.81-2.27,12.23-2.08,18.47a372.7,372.7,0,0,0,6.22,57.52l5.64,1.52a153.77,153.77,0,0,0,.89-42c-.58-5-1.34-10.44,1.19-14.81,1.69-2.93,4.61-4.89,7-7.24A28.24,28.24,0,0,0,194.59,294.37Z"></path></g><path d="M174.11,326.67c.39,9.78,3,41,3,49.85" style="fill:#a26760"></path><path d="M177.13,376.52a3.3,3.3,0,0,1-.06-.5l-.07-1.46c-.08-1.34-.18-3.14-.31-5.34-.31-4.58-.74-10.77-1.21-17.61s-.9-13.11-1.14-17.63c-.13-2.25-.2-4.08-.24-5.34,0-.59,0-1.07,0-1.46a1.71,1.71,0,0,1,0-.51,2.5,2.5,0,0,1,.07.5c0,.4.07.87.12,1.45.1,1.34.24,3.15.4,5.34.34,4.58.8,10.77,1.3,17.61s.87,13.12,1.06,17.63c.09,2.26.14,4.09.14,5.36,0,.58,0,1.06,0,1.46A1.51,1.51,0,0,1,177.13,376.52Z" style="fill:#7b4b45"></path><g style="opacity:0.30000000000000004"><path d="M318.57,375.53c-1.11-5.76-5-10.57-8.79-15a327.29,327.29,0,0,0-51.36-48L215.93,288c6.74,20.42,23,23.32,34.32,35,15.23,15.77,27.29,34,42.52,49.79,5,5.12,10.51,10.56,17.6,11.27,2.83.29,6.07-.46,7.56-2.88A8,8,0,0,0,318.57,375.53Z"></path></g><path d="M143.75,480.81s9-41.28,16.81-53a199.63,199.63,0,0,0,12-20.18c44,8.13,86.81,11.11,128.26,8.38l23.14,64.79Z" style="fill:#263238"></path><path d="M313,275c.14,0,.53,12.72.87,28.43s.51,28.45.36,28.45-.53-12.73-.88-28.44S312.86,275,313,275Z" style="fill:#263238"></path><path d="M331.32,253.51a25.51,25.51,0,0,1-2.25,2.3c-1.41,1.39-3.34,3.34-5.38,5.58s-3.8,4.33-5.05,5.87a22.86,22.86,0,0,1-2.09,2.45,17.18,17.18,0,0,1,1.8-2.68c1.18-1.6,2.91-3.74,5-6s4-4.17,5.51-5.5A16.07,16.07,0,0,1,331.32,253.51Z" style="fill:#263238"></path><path d="M273.19,372.68a3.57,3.57,0,0,1-.7.16l-2,.34c-1.77.3-4.34.67-7.53,1.06a237.44,237.44,0,0,1-25,1.65,235.83,235.83,0,0,1-25.06-1c-3.2-.31-5.78-.61-7.55-.86l-2.05-.3a3.19,3.19,0,0,1-.71-.14,3.9,3.9,0,0,1,.72,0l2.06.2c1.78.19,4.37.44,7.56.7,6.39.53,15.24,1,25,.88s18.62-.81,25-1.5c3.19-.34,5.77-.65,7.54-.89l2.05-.25A3.54,3.54,0,0,1,273.19,372.68Z" style="fill:#263238"></path><path d="M251,352.19a5.91,5.91,0,0,1-1.07.74c-.71.45-1.75,1.07-3,1.81a114.44,114.44,0,0,1-21.38,9.31c-1.42.45-2.58.79-3.39,1a7,7,0,0,1-1.27.28,5.77,5.77,0,0,1,1.21-.47l3.34-1.16c2.81-1,6.66-2.43,10.83-4.24s7.85-3.66,10.49-5c1.24-.67,2.29-1.22,3.12-1.66A6.59,6.59,0,0,1,251,352.19Z" style="fill:#263238"></path><path d="M251.33,269.93s-37.3-14-38.62-14.69-4.17,2.52-1.13,6.55l6.55,4.45s-4.41,2.25-.74,7.4,15,15.49,15,15.49l2.76,3.51s-7.18-.76-9.18-2.73c-2.19-2.17-7.74-6-8.68-4.93s-2.36,2.42-.67,5,17.69,15.1,18.77,16.1,8.54,6.42,11.26,8.1,8.59,5.44,8.59,5.44l17.21-8.72-6.65-32.26s-3.13-21.07-3.65-22.38-3.78-11-3.78-11-3.26-.08-4.36,5.39.46,11.85.46,11.85l-1,8.2Z" style="fill:#a26760"></path><path d="M251.33,269.93a5.75,5.75,0,0,1,.55.19l1.64.63-.06,0c.2-1.76.53-4.53.95-8.21v0a34.15,34.15,0,0,1-.88-8.48,17.42,17.42,0,0,1,.83-5.11,7.39,7.39,0,0,1,1.4-2.46,4,4,0,0,1,2.64-1.37h.11l0,.11,2.17,6.25c.38,1.09.77,2.2,1.16,3.33.19.58.41,1.11.58,1.75s.25,1.21.37,1.82c.87,4.92,1.68,10.2,2.55,15.79.21,1.4.42,2.82.64,4.26s.59,2.86.89,4.32q.91,4.38,1.86,9c1.27,6.11,2.59,12.5,4,19.1l0,.18-.17.09-17.21,8.73-.13.06-.12-.08c-3.41-2.17-6.91-4.31-10.43-6.63q-2.59-1.77-5.17-3.65c-1.7-1.26-3.46-2.51-5.07-3.93-3.38-2.73-6.75-5.42-10-8.14-1.63-1.36-3.24-2.72-4.81-4.12-.78-.71-1.56-1.41-2.29-2.17a5.68,5.68,0,0,1-1.65-2.74,3,3,0,0,1,.06-1.66,4.65,4.65,0,0,1,.82-1.4l.51-.58a1,1,0,0,1,.92-.29,4.82,4.82,0,0,1,1.53.49,26.54,26.54,0,0,1,5.09,3.32c.39.31.78.64,1.15,1a5.16,5.16,0,0,0,1.11.9,11.66,11.66,0,0,0,2.66,1.07,38.27,38.27,0,0,0,5.65,1.08l-.21.39-2.76-3.51,0,0c-4-3.68-7.79-7.32-11.24-11-.85-.93-1.69-1.86-2.48-2.81a17.17,17.17,0,0,1-2.12-3,5.25,5.25,0,0,1-.59-3.6,4.52,4.52,0,0,1,2.19-2.81l0,.36L211.47,262l0,0,0,0a7.16,7.16,0,0,1-1.25-2.61,4.27,4.27,0,0,1,.26-2.82,2.94,2.94,0,0,1,.89-1.12,1.45,1.45,0,0,1,1.42-.31c.81.35,1.62.67,2.42,1l9.09,3.51,14.61,5.57,9.25,3.54,2.4.94c.54.21.82.34.82.34s-.29-.09-.84-.29l-2.42-.88-9.29-3.44-14.64-5.49-9.1-3.47c-.81-.31-1.63-.62-2.45-1a1.1,1.1,0,0,0-1.05.26,2.71,2.71,0,0,0-.77,1,3.93,3.93,0,0,0-.22,2.58,6.64,6.64,0,0,0,1.19,2.45l-.05-.05,6.55,4.44.28.19-.3.17a4.16,4.16,0,0,0-2,2.54,4.89,4.89,0,0,0,.57,3.3,16.14,16.14,0,0,0,2.07,2.94c.78.95,1.62,1.87,2.48,2.79,3.44,3.66,7.23,7.29,11.23,11v0h0l2.76,3.51.36.46-.58-.07a37.07,37.07,0,0,1-5.73-1.09,12.3,12.3,0,0,1-2.79-1.11,6,6,0,0,1-1.19-1c-.36-.33-.74-.65-1.12-1a27.14,27.14,0,0,0-5-3.25,4.44,4.44,0,0,0-1.36-.45c-.23,0-.4,0-.49.13l-.49.57a3.92,3.92,0,0,0-.74,1.23,2.62,2.62,0,0,0,0,1.39,5.2,5.2,0,0,0,1.52,2.5c.71.74,1.49,1.44,2.26,2.13,1.56,1.39,3.17,2.75,4.81,4.11,3.26,2.72,6.62,5.4,10,8.14,1.61,1.42,3.34,2.65,5.05,3.91s3.43,2.47,5.16,3.64c3.47,2.29,7,4.46,10.4,6.63h-.25l17.21-8.71-.13.27-3.93-19.12c-.62-3.06-1.24-6.05-1.84-9l-.88-4.34c-.21-1.43-.43-2.85-.63-4.25-.85-5.6-1.65-10.89-2.5-15.79-.11-.61-.23-1.22-.36-1.8s-.38-1.15-.56-1.71c-.39-1.13-.77-2.25-1.14-3.34q-1.12-3.27-2.15-6.27l.14.11a3.67,3.67,0,0,0-2.41,1.26,7,7,0,0,0-1.34,2.34,17.5,17.5,0,0,0-.85,5,34.67,34.67,0,0,0,.81,8.44v0h0c-.48,3.67-.83,6.44-1.06,8.2v.06l0,0-1.63-.67Z" style="fill:#7b4b45"></path><path d="M242,273s-8.53-7.33-9.35-8.15-12.48-10.41-15.3-11.13c-3.22-.82-3.94,2.58-3,4.42s6.6,7.78,6.6,7.78" style="fill:#a26760"></path><path d="M221,265.93a1.92,1.92,0,0,1-.37-.33l-1-1c-.85-.88-2.08-2.17-3.52-3.84-.35-.42-.72-.86-1.09-1.34a5.66,5.66,0,0,1-1-1.64,4.2,4.2,0,0,1-.16-2.09,2.86,2.86,0,0,1,1.17-1.91,3,3,0,0,1,2.33-.3,8.73,8.73,0,0,1,2.16,1c1.37.83,2.7,1.78,4.06,2.77,2.7,2,5.2,4,7.43,5.84s4.16,3.66,5.8,5.1l3.86,3.47,1,1c.23.23.35.35.33.37a2.15,2.15,0,0,1-.4-.29l-1.1-.89-4-3.36c-1.69-1.41-3.63-3.16-5.85-5s-4.75-3.81-7.44-5.79c-1.35-1-2.68-1.93-4-2.75a8.28,8.28,0,0,0-2-1,2.48,2.48,0,0,0-2,.22,2.44,2.44,0,0,0-1,1.6,3.76,3.76,0,0,0,.12,1.86,5.59,5.59,0,0,0,.91,1.54c.35.48.71.92,1.06,1.35,1.39,1.69,2.57,3,3.38,3.94l.92,1.06C220.89,265.78,221,265.91,221,265.93Z" style="fill:#7b4b45"></path><path d="M217.74,266.48s.19-.38.86-.59a4.37,4.37,0,0,1,2.82.29,6,6,0,0,1,1.65,1.08l1.67,1.44c1.17,1,2.45,2.17,3.76,3.4,2.63,2.46,4.91,4.78,6.52,6.5.8.86,1.44,1.57,1.87,2.06a4,4,0,0,1,.63.81,3.6,3.6,0,0,1-.77-.67l-2-1.94c-1.67-1.65-4-3.93-6.61-6.38l-3.72-3.42-1.64-1.47a5.85,5.85,0,0,0-1.52-1.08,4.35,4.35,0,0,0-2.61-.42A2.89,2.89,0,0,0,217.74,266.48Z" style="fill:#7b4b45"></path><path d="M261.31,277.31c-.11.11-1.78-1.74-4.19-3.6s-4.59-3.06-4.51-3.2a15,15,0,0,1,4.83,2.79A14.77,14.77,0,0,1,261.31,277.31Z" style="fill:#7b4b45"></path><path d="M269.15,300.73l51.59,37.12-1.69-8.49L355,325s6.11,41,4.24,51.84c-1.12,6.44-8.54,20-31.23,14.19-14-3.57-75.41-73.29-75.41-73.29Z" style="fill:#a26760"></path><path d="M344.59,354.29a5.43,5.43,0,0,1-.87-.76c-.53-.51-1.31-1.25-2.28-2.14a85.24,85.24,0,0,0-8-6.47,84.15,84.15,0,0,0-8.76-5.4c-1.16-.62-2.11-1.11-2.77-1.44a5.46,5.46,0,0,1-1-.57,4.36,4.36,0,0,1,1.09.38c.68.28,1.66.72,2.85,1.3a67.16,67.16,0,0,1,8.89,5.31,66.26,66.26,0,0,1,7.95,6.63c.94.92,1.68,1.7,2.17,2.26A4.24,4.24,0,0,1,344.59,354.29Z" style="fill:#7b4b45"></path><path d="M145.45,315.84,142.3,357s-7.37,17-4,28.56,10.59,28.14,21.43,27.63S178,393.07,178,386.87s-4.38-63.6-4.12-64.37S145.45,315.84,145.45,315.84Z" style="fill:#a26760"></path><path d="M159.21,413.24c-4.65,0-9-3.12-13-9.28s-6.71-14.21-7.91-18.37a27.31,27.31,0,0,1-.79-9.37,53,53,0,0,1,1.54-9.28,70.93,70.93,0,0,1,3.26-9.92l3.15-41.21h0c1.14.23,28,5.73,28.48,6.63a.05.05,0,0,1,0,.05c-.12.35.77,13,1.71,26.45,1.13,16.21,2.41,34.57,2.41,37.92,0,3-1.78,9.41-5.1,15.31a29.63,29.63,0,0,1-5.79,7.58,12.09,12.09,0,0,1-7.46,3.47Zm-13.74-97.37L142.32,357a71.44,71.44,0,0,0-3.27,9.92,53.82,53.82,0,0,0-1.53,9.27,27.25,27.25,0,0,0,.79,9.36c1.2,4.16,3.82,12.07,7.9,18.35s8.36,9.26,13,9.26h.5a12,12,0,0,0,7.42-3.45,29.92,29.92,0,0,0,5.79-7.57c3.31-5.89,5.09-12.27,5.09-15.29,0-3.34-1.28-21.71-2.41-37.91-1-14-1.83-26.11-1.71-26.47v0C173.39,321.61,146.49,316.08,145.47,315.87Z" style="fill:#7b4b45"></path><path d="M171.48,245.12c.21,1,5,27.88,5,27.88h0L187,320.35a1.66,1.66,0,0,0,1.51,1.43h0a1.65,1.65,0,0,0,1.5-1.33l20-74.65-38.52-.68" style="fill:#FF725E"></path><g style="opacity:0.30000000000000004"><path d="M196.73,295a5.17,5.17,0,0,1-1.1,2.23,19.81,19.81,0,0,1-4.42,4.05,32.74,32.74,0,0,1-5.13,3.09,9,9,0,0,1-2.3.91,15.92,15.92,0,0,1,2.13-1.23,48.27,48.27,0,0,0,5-3.19,24.77,24.77,0,0,0,4.43-3.85C196.3,295.87,196.65,295,196.73,295Z"></path></g><g style="opacity:0.30000000000000004"><path d="M201.07,278.28a3.33,3.33,0,0,1-.6.81c-.41.51-1,1.21-1.82,2.06a72.44,72.44,0,0,1-6.63,6.18,65.93,65.93,0,0,1-7.37,5.26c-1,.6-1.81,1.07-2.39,1.36a4,4,0,0,1-.91.42c0-.07,1.18-.81,3.1-2.09s4.52-3.12,7.24-5.36,5.05-4.41,6.69-6S201,278.23,201.07,278.28Z"></path></g><g style="opacity:0.30000000000000004"><path d="M206.36,259.4a6.24,6.24,0,0,1-.77,1.14,35.68,35.68,0,0,1-2.46,2.85,54.72,54.72,0,0,1-9.65,7.79c-4.06,2.65-7.88,4.79-10.57,6.45l-3.19,2a7.32,7.32,0,0,1-1.19.69,6.32,6.32,0,0,1,1.08-.86c.71-.53,1.77-1.25,3.1-2.12,2.66-1.74,6.45-3.93,10.49-6.56a62.67,62.67,0,0,0,9.67-7.62c1.12-1.11,2-2.06,2.56-2.72A6.93,6.93,0,0,1,206.36,259.4Z"></path></g><g style="opacity:0.30000000000000004"><path d="M200.63,246.09a5.7,5.7,0,0,1-.84.86c-.56.53-1.4,1.27-2.45,2.16a94.21,94.21,0,0,1-8.65,6.42,87.76,87.76,0,0,1-9.34,5.36c-1.23.61-2.25,1.07-3,1.37a4.44,4.44,0,0,1-1.13.41,6,6,0,0,1,1-.59l2.88-1.52c2.43-1.29,5.73-3.17,9.23-5.47s6.54-4.58,8.7-6.27l2.55-2A6.13,6.13,0,0,1,200.63,246.09Z"></path></g><g style="opacity:0.30000000000000004"><path d="M206.4,259.91a85.29,85.29,0,0,1-6.48-7,87.68,87.68,0,0,1-6.08-7.36,88.64,88.64,0,0,1,6.48,7A88.59,88.59,0,0,1,206.4,259.91Z"></path></g><g style="opacity:0.30000000000000004"><path d="M202.33,276.07a7.11,7.11,0,0,1-1.14-.88c-.36-.29-.79-.67-1.27-1.12s-1-.95-1.62-1.55a61.11,61.11,0,0,1-8.09-10.11,68.74,68.74,0,0,1-6-11.49c-.62-1.54-1.08-2.81-1.35-3.69a6.48,6.48,0,0,1-.39-1.39,9.36,9.36,0,0,1,.58,1.32c.33.86.84,2.1,1.49,3.61a80.86,80.86,0,0,0,6.07,11.36,69.66,69.66,0,0,0,7.92,10.14c.56.6,1.09,1.13,1.55,1.59s.86.87,1.2,1.18A8.18,8.18,0,0,1,202.33,276.07Z"></path></g><g style="opacity:0.30000000000000004"><path d="M198,292.35a8.62,8.62,0,0,1-1.17-1.07c-.73-.71-1.76-1.77-3-3.11a128.59,128.59,0,0,1-9-11A137.27,137.27,0,0,1,177,265.22c-.91-1.58-1.63-2.88-2.1-3.78a9.82,9.82,0,0,1-.68-1.43,8.32,8.32,0,0,1,.86,1.33L177.3,265c1.9,3.1,4.63,7.33,7.92,11.81s6.49,8.35,8.89,11.08c1.2,1.37,2.19,2.47,2.88,3.22A9.71,9.71,0,0,1,198,292.35Z"></path></g><g style="opacity:0.30000000000000004"><path d="M193.91,304.63s-.29-.13-.74-.45-1.1-.8-1.87-1.43a47.66,47.66,0,0,1-5.55-5.41,51.63,51.63,0,0,1-4.66-6.2c-.53-.83-1-1.52-1.21-2a2.85,2.85,0,0,1-.36-.79,24.81,24.81,0,0,1,1.87,2.6,75.26,75.26,0,0,0,4.75,6.06,67.2,67.2,0,0,0,5.4,5.47A31.51,31.51,0,0,1,193.91,304.63Z"></path></g><g style="opacity:0.30000000000000004"><path d="M191.79,315.51a17.29,17.29,0,0,1-4.25-3.37,17.76,17.76,0,0,1-3.42-4.21c.12-.1,1.68,1.75,3.79,3.84S191.88,315.39,191.79,315.51Z"></path></g><path d="M154,283.72s6.09-16.4,7.27-17.1c.88-.53,13-4.37,19-6.24a2.75,2.75,0,0,1,3.48,3.36,7.17,7.17,0,0,1-2.09,3.35c-3.75,3.51-12.65,6.09-12.65,6.09l-3.52,9.37,1.88,1.17,6.79-4.68,20.15-2.34s5.62-.24,5.15,3a7.22,7.22,0,0,1-6.32,5.86l-16.39,2.57-4,6.1,30.46-4.22s2.34.94,0,4.92-25.07,8-25.07,8l-.93,2.11,25.53-3.75a4.92,4.92,0,0,1,1.51,4.69c-.57,3-27,6.09-27,6.09a11.61,11.61,0,0,1,.46,8c-1.4,4-4.21,5.16-4.21,10.78L152,327.91s4.78-19.59,3.14-27.09S154,283.72,154,283.72Z" style="fill:#a26760"></path><path d="M154.67,297.46a8.3,8.3,0,0,1,6-8.72" style="fill:#a26760"></path><path d="M160.62,288.74a15.71,15.71,0,0,1-1.47.79,9.11,9.11,0,0,0-2.86,2.65,9,9,0,0,0-1.42,3.63c-.16,1-.12,1.64-.2,1.65a3.34,3.34,0,0,1-.16-1.69,7.87,7.87,0,0,1,4.47-6.56A3.38,3.38,0,0,1,160.62,288.74Z" style="fill:#7b4b45"></path><path d="M171.48,294.48a18.54,18.54,0,0,1-5.42,1.43,13.23,13.23,0,0,0-5.3,1.75,5,5,0,0,0-2.36,4.76" style="fill:#a26760"></path><path d="M158.4,302.42a3.09,3.09,0,0,1,.17-2.48,5.7,5.7,0,0,1,1.67-2.19,8.68,8.68,0,0,1,3-1.5c2.29-.64,4.4-.75,5.87-1.11s2.32-.73,2.36-.66a5.76,5.76,0,0,1-2.27,1c-1.48.46-3.62.64-5.82,1.25a8.89,8.89,0,0,0-2.85,1.37,5.24,5.24,0,0,0-2.14,4.3Z" style="fill:#7b4b45"></path><path d="M167.22,307a3.73,3.73,0,0,0-4,2.84,6.27,6.27,0,0,0,1.2,5.09" style="fill:#a26760"></path><path d="M164.43,314.89s-.49-.4-1-1.29a5.59,5.59,0,0,1-.51-3.84,4.07,4.07,0,0,1,2.64-2.83,2,2,0,0,1,1.61,0,9,9,0,0,0-1.48.31,4,4,0,0,0-2.27,2.62,6,6,0,0,0,.35,3.56A11.74,11.74,0,0,1,164.43,314.89Z" style="fill:#7b4b45"></path><g style="opacity:0.30000000000000004"><path d="M174.43,251.38a9.68,9.68,0,0,1,6.26,9.71c-.07.85-.23,1.83.35,2.46a1.81,1.81,0,0,0,2.64-.36,4.27,4.27,0,0,0,.58-2.92,9.63,9.63,0,0,1,0-3,2.31,2.31,0,0,1,2.08-1.9,2.22,2.22,0,0,1,1.79,1.27,6.76,6.76,0,0,1,.55,2.23l1.71,13.86c.08.69.38,1.56,1.06,1.54s.94-.88,1-1.55q1.15-12.46,1.23-25a3.8,3.8,0,0,1,.29-1.77,1.3,1.3,0,0,1,1.49-.72c.59.22.8.92.93,1.53a64.88,64.88,0,0,1,1.34,16c0,.93.06,2.11.94,2.4a1.47,1.47,0,0,0,1.65-.83,4.37,4.37,0,0,0,.31-2c0-1.89,0-3.79,0-5.68,0-1.17.09-2.54,1.06-3.19s2.13-.33,3-.89c1.18-.72,1.21-2.39,1.1-3.77a4.1,4.1,0,0,0-4.61-4.66,58,58,0,0,0-12.76-.39,57.88,57.88,0,0,0-10.94,2.76,6.47,6.47,0,0,0-3.15,1.73c-.78.93-.87,2.55.15,3.22"></path></g><path d="M212.56,221.22c-3.89-9.08-10.74-14.18-20.82-14.64-11.72-.53-22.66,9.66-23,21.37a27.34,27.34,0,0,0,1.34,9.19c.55,1.7-.05,4,.83,5.35,1.4,2.22.57,4.42.9,6.59a6.44,6.44,0,0,0,.46,2c.24.47.86.74,1.31,1.1a10.86,10.86,0,0,0,1-1.4c.13-.24-.07-.65,0-.91a13,13,0,0,1,.84-1.5c.39.42.83.81,1.18,1.26s.67,1.51,1.07,1.56c2.09.23,2.15,1.63,2,3.13-.19,2.18-.48,4.34-.73,6.51a9.4,9.4,0,0,0-.14,1.3,2.37,2.37,0,0,0,2.42,2.57c1.56.06,2.15-1.11,2.27-2.47a12.19,12.19,0,0,0-.21-2.23,33.72,33.72,0,0,1-.51-5.56h0a3.66,3.66,0,0,1,4.68,3.68,6.25,6.25,0,0,0,.16,1.78,45.39,45.39,0,0,1,1.22,16.33c-.18,1.74-.44,3.66,1,5a2,2,0,0,0,2.57.19c.82-.65.69-1.66.55-2.56a103.44,103.44,0,0,1-.36-29,18,18,0,0,0,.22-3.19c.31-.42.84-.8,1.2-1.2a8.63,8.63,0,0,1,1.27,1.58,4.31,4.31,0,0,1,.31,1.83c-.06,5-.17,10-.23,15a6.39,6.39,0,0,0,.31,2.71,2.59,2.59,0,0,0,1.86,1.25,2.14,2.14,0,0,0,1.58-1.27,10,10,0,0,0,.35-3.49c-.12-2.24-.42-4.47-.64-6.7h0a9.94,9.94,0,0,1,.23-2.45,16,16,0,0,1,1.63-4.47c.43-.67,1.81-.93,2.77-.95.36,0,.74,1.17,1.13,1.79s.65,1.43,1.11,1.53c1.52.31,1.41,1.29,1.38,2.4a19.51,19.51,0,0,0,.17,3.67c.06.33.85.74,1.3.74s.84-.57.93-1a8.54,8.54,0,0,0,.17-2.42c-.09-1.75-.4-3.49-.35-5.23a9.8,9.8,0,0,1,.89-3.22c.28-.72,1-1.3,1.2-2,.7-3.22,1.17-6.5,1.9-9.72C214.37,230.34,214.46,225.65,212.56,221.22Z" style="fill:#FF725E"></path><g style="opacity:0.8"><path d="M212.56,221.22c-3.89-9.08-10.74-14.18-20.82-14.64-11.72-.53-22.66,9.66-23,21.37a27.34,27.34,0,0,0,1.34,9.19c.55,1.7-.05,4,.83,5.35,1.4,2.22.57,4.42.9,6.59a6.44,6.44,0,0,0,.46,2c.24.47.86.74,1.31,1.1a10.86,10.86,0,0,0,1-1.4c.13-.24-.07-.65,0-.91a13,13,0,0,1,.84-1.5c.39.42.83.81,1.18,1.26s.67,1.51,1.07,1.56c2.09.23,2.15,1.63,2,3.13-.19,2.18-.48,4.34-.73,6.51a9.4,9.4,0,0,0-.14,1.3,2.37,2.37,0,0,0,2.42,2.57c1.56.06,2.15-1.11,2.27-2.47a12.19,12.19,0,0,0-.21-2.23,33.72,33.72,0,0,1-.51-5.56h0a3.66,3.66,0,0,1,4.68,3.68,6.25,6.25,0,0,0,.16,1.78,45.39,45.39,0,0,1,1.22,16.33c-.18,1.74-.44,3.66,1,5a2,2,0,0,0,2.57.19c.82-.65.69-1.66.55-2.56a103.44,103.44,0,0,1-.36-29,18,18,0,0,0,.22-3.19c.31-.42.84-.8,1.2-1.2a8.63,8.63,0,0,1,1.27,1.58,4.31,4.31,0,0,1,.31,1.83c-.06,5-.17,10-.23,15a6.39,6.39,0,0,0,.31,2.71,2.59,2.59,0,0,0,1.86,1.25,2.14,2.14,0,0,0,1.58-1.27,10,10,0,0,0,.35-3.49c-.12-2.24-.42-4.47-.64-6.7h0a9.94,9.94,0,0,1,.23-2.45,16,16,0,0,1,1.63-4.47c.43-.67,1.81-.93,2.77-.95.36,0,.74,1.17,1.13,1.79s.65,1.43,1.11,1.53c1.52.31,1.41,1.29,1.38,2.4a19.51,19.51,0,0,0,.17,3.67c.06.33.85.74,1.3.74s.84-.57.93-1a8.54,8.54,0,0,0,.17-2.42c-.09-1.75-.4-3.49-.35-5.23a9.8,9.8,0,0,1,.89-3.22c.28-.72,1-1.3,1.2-2,.7-3.22,1.17-6.5,1.9-9.72C214.37,230.34,214.46,225.65,212.56,221.22Z" style="fill:#fff"></path></g><path d="M173.22,237.84a4.56,4.56,0,0,1-.49-1.1,20.45,20.45,0,0,1-.85-3.19,23.1,23.1,0,0,1,.6-10.82,20.44,20.44,0,0,1,6.05-9,26.35,26.35,0,0,1,2.58-2.05,4.7,4.7,0,0,1,1-.64c.05.07-1.36,1.06-3.35,3a21.25,21.25,0,0,0-5.82,8.86,24.43,24.43,0,0,0-.73,10.61C172.66,236.21,173.32,237.81,173.22,237.84Z" style="fill:#fff"></path><path d="M185.59,234.12a2.24,2.24,0,0,1,.11.89,8.31,8.31,0,0,1-.33,2.44,3.34,3.34,0,0,1-.84,1.56,1.46,1.46,0,0,1-1,.34,1.14,1.14,0,0,1-.93-.7,4.35,4.35,0,0,0-.43-.89c-.19-.23-.42-.3-.56-.15a1.7,1.7,0,0,0-.31.89,6.74,6.74,0,0,0-.07,1.12,6.25,6.25,0,0,1-.31,2.34,2.11,2.11,0,0,1-1.81,1.39A1.51,1.51,0,0,1,178,243a2.66,2.66,0,0,1-.6-.81,9.77,9.77,0,0,1-.62-1.59,11.14,11.14,0,0,1-.45-2.41,2.64,2.64,0,0,1,0-.9,30.3,30.3,0,0,0,.77,3.19,11.85,11.85,0,0,0,.65,1.51,1.44,1.44,0,0,0,1.27.92,1.65,1.65,0,0,0,1.36-1.1,6,6,0,0,0,.26-2.16,8,8,0,0,1,.07-1.19,2.1,2.1,0,0,1,.48-1.18.77.77,0,0,1,.75-.19,1.16,1.16,0,0,1,.55.4,4.53,4.53,0,0,1,.47,1,.76.76,0,0,0,1.25.23,2.78,2.78,0,0,0,.76-1.33A15,15,0,0,0,185.59,234.12Z" style="fill:#fff"></path><path d="M207.18,229.62a2.58,2.58,0,0,1,.17.88,3.9,3.9,0,0,1,0,1.07,2.46,2.46,0,0,1-.59,1.33,2.06,2.06,0,0,1-.72.52,1.81,1.81,0,0,1-1,.11,1.35,1.35,0,0,0-1.46.6,3.37,3.37,0,0,0-.51,1.88,6.48,6.48,0,0,1-.32,2.33,1.89,1.89,0,0,1-.86,1,1.32,1.32,0,0,1-1.32-.08,4.15,4.15,0,0,1-1.32-1.81,14.09,14.09,0,0,1-1.09-3.47,11.88,11.88,0,0,1-.19-2.44,2.45,2.45,0,0,1,.1-.89c.1,0,0,1.28.45,3.26a14.84,14.84,0,0,0,1.17,3.33,3.71,3.71,0,0,0,1.15,1.58.83.83,0,0,0,.82.06,1.4,1.4,0,0,0,.61-.73,6.58,6.58,0,0,0,.29-2.15,3.79,3.79,0,0,1,.63-2.14,2,2,0,0,1,.87-.69,1.94,1.94,0,0,1,1-.06,1.45,1.45,0,0,0,1.35-.45,3.06,3.06,0,0,0,.68-2.14A3.46,3.46,0,0,1,207.18,229.62Z" style="fill:#fff"></path><path d="M193.31,224.27c.07,0,.2.41.22,1.13a6.05,6.05,0,0,1-.13,1.26,6.23,6.23,0,0,1-.2.73,1.26,1.26,0,0,1-.58.74,1,1,0,0,1-1-.14,2.7,2.7,0,0,1-.55-.58,3.16,3.16,0,0,1-.55-1.17c-.18-.72-.05-1.17,0-1.16s.1.43.34,1a3.44,3.44,0,0,0,.58,1c.25.32.68.69.93.54s.43-.71.54-1.11a7.73,7.73,0,0,0,.23-1.17C193.24,224.71,193.23,224.28,193.31,224.27Z" style="fill:#fff"></path><path d="M210,221.64c.05,0,.31.2.59.72a1.66,1.66,0,0,1,.19,1.06,1.17,1.17,0,0,1-1,1,1.5,1.5,0,0,1-1.29-.49A2.1,2.1,0,0,1,208,223c-.13-.57-.09-.91,0-.93s.18.33.38.82a2,2,0,0,0,.46.72,1.09,1.09,0,0,0,.87.31.71.71,0,0,0,.57-.59,1.54,1.54,0,0,0-.06-.83C210.06,222,209.9,221.68,210,221.64Z" style="fill:#fff"></path><path d="M189.92,263.77a28.49,28.49,0,0,1-1.22-5.27,27.6,27.6,0,0,1-.71-5.36,28,28,0,0,1,1.22,5.27A26.94,26.94,0,0,1,189.92,263.77Z" style="fill:#fff"></path><path d="M181.05,257.52a23.07,23.07,0,0,1-.49-6.83,11.59,11.59,0,0,1,.51,3.39A11.76,11.76,0,0,1,181.05,257.52Z" style="fill:#fff"></path><path d="M191.93,209.76c0,.15-1.49-.1-3.27.11s-3.15.76-3.21.62a5.57,5.57,0,0,1,3.15-1.14A5.44,5.44,0,0,1,191.93,209.76Z" style="fill:#fff"></path><path d="M185.52,244.57v3.33a.63.63,0,0,0,.63.62.62.62,0,0,0,.62-.62v-3.33a.63.63,0,0,0-.62-.63.65.65,0,0,0-.63.63Z" style="fill:#FF725E"></path><path d="M178.27,228.82l2.46-.52a.63.63,0,0,0-.33-1.21l-2.46.52a.63.63,0,0,0-.44.77.65.65,0,0,0,.77.44Z" style="fill:#263238"></path><path d="M194.16,216.16c.42.47.83.94,1.25,1.4l.17.2a.64.64,0,0,0,.45.18.67.67,0,0,0,.44-.18.64.64,0,0,0,0-.88l-1.25-1.41-.17-.19a.65.65,0,0,0-.45-.19.63.63,0,0,0-.44,1.07Z" style="fill:#263238"></path><path d="M204.11,216.52l-.27,2a.63.63,0,0,0,.19.44.59.59,0,0,0,.44.18.65.65,0,0,0,.44-.18.72.72,0,0,0,.18-.44l.27-2a.6.6,0,0,0-.18-.44.68.68,0,0,0-.44-.19.61.61,0,0,0-.44.19.77.77,0,0,0-.19.44Z" style="fill:#FF725E"></path><path d="M202.85,228.68l-.54,1.55a.66.66,0,0,0,.06.48.65.65,0,0,0,.38.29.62.62,0,0,0,.48-.06.78.78,0,0,0,.29-.38l.53-1.55a.58.58,0,0,0-.06-.48.6.6,0,0,0-.37-.29.62.62,0,0,0-.48.06.65.65,0,0,0-.29.38Z" style="fill:#FF725E"></path><path d="M187.87,231.87c.4.28.79.57,1.18.86a.64.64,0,0,0,.86-.23A.66.66,0,0,0,190,232l-.06-.15a.61.61,0,0,0-.23-.22l-1.18-.86a.62.62,0,0,0-.48-.06.61.61,0,0,0-.37.28.63.63,0,0,0-.07.48l.07.15a.61.61,0,0,0,.22.23Z" style="fill:#263238"></path><path d="M182.62,293.18c-.37-.42-1-.23-1.57-.27a20.71,20.71,0,0,0-8,1.23,1.8,1.8,0,0,0-1.4,1.15,1.84,1.84,0,0,0,1.35,2.3c.78.15,1.66-.22,2.35.16s.86,1.64,1.48,2.35a2.12,2.12,0,0,0,1.88.61,3.94,3.94,0,0,0,1.84-.88,6.68,6.68,0,0,0,2.4-5.47A2,2,0,0,0,182.62,293.18Z" style="fill:#FF725E"></path><g style="opacity:0.8"><path d="M182.62,293.18c-.37-.42-1-.23-1.57-.27a20.71,20.71,0,0,0-8,1.23,1.8,1.8,0,0,0-1.4,1.15,1.84,1.84,0,0,0,1.35,2.3c.78.15,1.66-.22,2.35.16s.86,1.64,1.48,2.35a2.12,2.12,0,0,0,1.88.61,3.94,3.94,0,0,0,1.84-.88,6.68,6.68,0,0,0,2.4-5.47A2,2,0,0,0,182.62,293.18Z" style="fill:#fff"></path></g><path d="M178.72,280.19a5,5,0,0,0-2.66.49l-.11.16a1.25,1.25,0,0,0,.17,1.23,2.67,2.67,0,0,0,1,.77,3,3,0,0,0,1.71.33,1.57,1.57,0,0,0,1.31-1A1.73,1.73,0,0,0,178.72,280.19Z" style="fill:#FF725E"></path><g style="opacity:0.8"><path d="M178.72,280.19a5,5,0,0,0-2.66.49l-.11.16a1.25,1.25,0,0,0,.17,1.23,2.67,2.67,0,0,0,1,.77,3,3,0,0,0,1.71.33,1.57,1.57,0,0,0,1.31-1A1.73,1.73,0,0,0,178.72,280.19Z" style="fill:#fff"></path></g><path d="M141.62,364.53c3.13-10.22,10.52-34.69,12.63-46.85" style="fill:#a26760"></path><path d="M154.25,317.68a1.87,1.87,0,0,1,0,.5l-.21,1.4c-.21,1.21-.55,3-1,5.1-.94,4.3-2.45,10.18-4.25,16.64s-3.56,12.27-4.87,16.46l-1.59,5c-.18.53-.33,1-.46,1.33a1.81,1.81,0,0,1-.19.46,1.5,1.5,0,0,1,.09-.49c.1-.37.22-.82.37-1.36.36-1.26.84-2.95,1.42-5l4.73-16.49c1.8-6.45,3.36-12.31,4.39-16.58.52-2.13.91-3.86,1.18-5.06.12-.55.22-1,.31-1.38A1.69,1.69,0,0,1,154.25,317.68Z" style="fill:#7b4b45"></path></g><g id="freepik--speech-bubble--inject-101"><path d="M141.47,149.07a5.48,5.48,0,1,0,5.48-5.48A5.47,5.47,0,0,0,141.47,149.07Z" style="fill:#fff"></path><path d="M141.47,149.07a11.71,11.71,0,0,0,.34-1.3,5.52,5.52,0,0,1,2-2.82,5.14,5.14,0,0,1,8.18,4.12,5.15,5.15,0,0,1-3.32,4.77,5.22,5.22,0,0,1-4.86-.66,5.44,5.44,0,0,1-2-2.82,10.37,10.37,0,0,0-.34-1.29,2.52,2.52,0,0,0,0,1.37,5.48,5.48,0,0,0,2,3.22,5.77,5.77,0,0,0,5.5.92,5.85,5.85,0,0,0,0-11,5.77,5.77,0,0,0-5.5.92,5.48,5.48,0,0,0-2,3.22A2.57,2.57,0,0,0,141.47,149.07Z" style="fill:#263238"></path><circle cx="94.03" cy="111.32" r="45.28" style="fill:#fff"></circle><path d="M48.75,111.32a4.23,4.23,0,0,0,.08-.73c0-.52.09-1.24.15-2.15,0-.48.07-1,.1-1.58s.19-1.21.3-1.89a32.15,32.15,0,0,1,.95-4.66,42.82,42.82,0,0,1,5-12,44.92,44.92,0,0,1,54-19.16,48,48,0,0,1,5.85,2.58c1,.51,1.86,1.11,2.8,1.67a22.41,22.41,0,0,1,2.7,1.87,50.56,50.56,0,0,1,5.09,4.32,51.2,51.2,0,0,1,4.4,5.2,43.47,43.47,0,0,1,6.41,12.36,44.52,44.52,0,0,1,0,28.31,43.47,43.47,0,0,1-6.41,12.36,51.32,51.32,0,0,1-4.4,5.21,51.59,51.59,0,0,1-5.08,4.32,23.34,23.34,0,0,1-2.71,1.87c-.94.56-1.85,1.16-2.8,1.67a46.47,46.47,0,0,1-5.85,2.58,45.19,45.19,0,0,1-23.58,2,45.21,45.21,0,0,1-30.38-21.13,42.82,42.82,0,0,1-5-12,32.42,32.42,0,0,1-.95-4.66c-.11-.68-.23-1.31-.3-1.89s-.07-1.1-.1-1.58c-.06-.91-.11-1.62-.15-2.15a4.23,4.23,0,0,0-.08-.73,5.07,5.07,0,0,0,0,.73c0,.53,0,1.24.07,2.16q0,.72.06,1.59c.05.59.16,1.22.25,1.91a33.62,33.62,0,0,0,.88,4.71,43,43,0,0,0,4.94,12.14,45.42,45.42,0,0,0,54.65,19.66,46.64,46.64,0,0,0,6-2.61c1-.52,1.9-1.13,2.85-1.69a22.53,22.53,0,0,0,2.76-1.9,49.93,49.93,0,0,0,5.19-4.4,50.94,50.94,0,0,0,4.49-5.29,44.2,44.2,0,0,0,6.54-12.59,48.72,48.72,0,0,0,2.36-14.43,48.71,48.71,0,0,0-2.36-14.42,44,44,0,0,0-6.55-12.58,41.7,41.7,0,0,0-9.67-9.69,23.32,23.32,0,0,0-2.76-1.9c-1-.56-1.88-1.17-2.85-1.69a46.64,46.64,0,0,0-6-2.61,45.75,45.75,0,0,0-24-1.93A45.58,45.58,0,0,0,55,88.07a43,43,0,0,0-5,12.15,33.62,33.62,0,0,0-.88,4.71c-.09.69-.2,1.32-.25,1.91s0,1.11-.06,1.59c0,.92-.05,1.63-.07,2.16A5.07,5.07,0,0,0,48.75,111.32Z" style="fill:#263238"></path><path d="M81.74,111.27v4.11H79.66v-3.79c0-1.16-.52-1.69-1.36-1.69s-1.59.6-1.59,1.88v3.6H74.64v-3.79c0-1.16-.5-1.69-1.36-1.69s-1.58.6-1.58,1.88v3.6H69.63v-7.17h2V109a2.88,2.88,0,0,1,2.25-.94,2.68,2.68,0,0,1,2.36,1.18,3.21,3.21,0,0,1,2.58-1.18C80.51,108.1,81.74,109.09,81.74,111.27Z"></path><path d="M95.7,111.27v4.11H93.62v-3.79c0-1.16-.52-1.69-1.35-1.69s-1.59.6-1.59,1.88v3.6H88.6v-3.79c0-1.16-.49-1.69-1.36-1.69s-1.57.6-1.57,1.88v3.6H83.59v-7.17h2V109a2.88,2.88,0,0,1,2.25-.94,2.68,2.68,0,0,1,2.36,1.18,3.19,3.19,0,0,1,2.58-1.18C94.48,108.1,95.7,109.09,95.7,111.27Z"></path><path d="M109.67,111.27v4.11h-2.08v-3.79c0-1.16-.52-1.69-1.36-1.69s-1.58.6-1.58,1.88v3.6h-2.08v-3.79c0-1.16-.49-1.69-1.36-1.69s-1.57.6-1.57,1.88v3.6H97.56v-7.17h2V109a2.91,2.91,0,0,1,2.26-.94,2.66,2.66,0,0,1,2.35,1.18,3.23,3.23,0,0,1,2.59-1.18C108.44,108.1,109.67,109.09,109.67,111.27Z"></path><path d="M111,114.18a1.29,1.29,0,0,1,2.58,0,1.29,1.29,0,1,1-2.58,0Z"></path><path d="M114.51,114.18a1.29,1.29,0,0,1,2.58,0,1.29,1.29,0,1,1-2.58,0Z"></path><path d="M118,114.18a1.29,1.29,0,0,1,2.58,0,1.29,1.29,0,1,1-2.58,0Z"></path></g></svg>